<svg width="68" height="68" viewBox="0 0 68 68" fill="none" xmlns="http://www.w3.org/2000/svg">
<circle cx="33.6043" cy="33.6043" r="32.1043" fill="white" stroke="#1243C1" stroke-width="3"/>
<path d="M54.6077 40.4023C54.6077 41.0182 54.6077 41.6341 54.6077 42.25C54.5275 42.7226 54.4589 43.1979 54.3663 43.6678C52.7308 51.9539 43.1913 56.0097 36.0587 51.4617C35.8494 51.3282 35.567 51.2463 35.3185 51.2454C29.3564 51.2339 23.3934 51.2365 17.4314 51.2365C16.4577 51.2365 16.276 51.0568 16.276 50.0911C16.276 49.5357 16.276 48.9795 16.276 48.3912C15.6115 48.3912 15.0111 48.3938 14.4098 48.3903C13.6731 48.3867 13.4424 48.1571 13.4424 47.4326C13.4424 37.6584 13.4424 27.8842 13.4442 18.1109C13.4442 17.8981 13.4522 17.6801 13.4967 17.4727C13.7203 16.4252 14.5487 15.7888 15.7201 15.7683C16.3722 15.7568 17.0252 15.7665 17.6674 15.7665C17.932 14.4146 18.6642 13.6875 19.7563 13.6519C20.9037 13.6145 21.6377 14.2936 22.002 15.7452C22.916 15.7452 23.8344 15.7452 24.7483 15.7452C25.24 14.2108 25.8485 13.602 26.9521 13.6688C27.3708 13.6946 27.818 13.8601 28.1797 14.0808C28.772 14.4422 29.0054 15.0652 29.074 15.7665C29.8116 15.7665 30.5207 15.747 31.2279 15.7737C31.6529 15.7897 31.8978 15.7657 32.0012 15.2272C32.1918 14.2321 33.1307 13.6047 34.1391 13.6545C35.1528 13.7053 35.9465 14.4431 36.1282 15.4835C36.146 15.585 36.2574 15.7496 36.3286 15.7514C37.2087 15.7701 38.0897 15.7639 38.9609 15.7639C39.2255 14.4182 39.9559 13.6901 41.0436 13.6527C42.1892 13.6136 42.8768 14.2491 43.2964 15.7665C43.4149 15.7665 43.5467 15.7665 43.6777 15.7665C44.1738 15.7665 44.6691 15.7621 45.1653 15.7674C46.6413 15.7826 47.5134 16.6512 47.5152 18.1242C47.5197 21.994 47.525 25.8629 47.5054 29.7328C47.5036 30.1787 47.631 30.3976 48.0372 30.6076C51.0374 32.1581 53.0613 34.5558 54.0554 37.7839C54.3182 38.6321 54.4278 39.5283 54.6077 40.4023ZM31.8426 46.96C29.6762 42.2295 29.9274 37.7011 33.2572 33.6622C36.5985 29.6099 41.0106 28.5001 46.0623 29.7283C46.0623 27.4445 46.0623 25.175 46.0623 22.8947C35.6623 22.8947 25.2855 22.8947 14.8979 22.8947C14.8979 30.9289 14.8979 38.9382 14.8979 46.96C20.5616 46.96 26.1941 46.96 31.8426 46.96ZM17.7022 17.187C17.0127 17.187 16.3847 17.1835 15.7558 17.1879C15.1287 17.1924 14.8739 17.4407 14.8703 18.0619C14.8641 18.9991 14.8685 19.9363 14.8685 20.8726C14.8685 21.0533 14.8685 21.2348 14.8685 21.4208C25.3024 21.4208 35.6775 21.4208 46.0784 21.4208C46.0784 20.2113 46.0917 19.0231 46.0703 17.835C46.0641 17.4727 45.8093 17.2226 45.4503 17.2075C44.7324 17.1772 44.0126 17.1986 43.2572 17.1986C43.2572 17.6302 43.2626 18.029 43.2563 18.4268C43.2456 19.0454 42.9944 19.3053 42.3735 19.3133C41.5433 19.324 40.7122 19.324 39.882 19.3133C39.2353 19.3053 39.0046 19.0561 39.001 18.3957C38.9983 17.9996 39.0001 17.6035 39.0001 17.2128C38.0211 17.2128 37.1036 17.2128 36.195 17.2128C36.179 17.2662 36.1647 17.292 36.1647 17.3178C36.1603 17.6925 36.1638 18.0672 36.154 18.4419C36.138 19.0481 35.8975 19.3026 35.2998 19.3124C34.4562 19.3257 33.6117 19.324 32.7681 19.3133C32.1428 19.3044 31.9121 19.0578 31.9005 18.4188C31.8934 18.0201 31.8996 17.6222 31.8996 17.2191C30.9251 17.2191 29.9987 17.2191 29.0802 17.2191C29.0669 17.2787 29.0562 17.3045 29.0562 17.3303C29.0535 17.6917 29.0544 18.053 29.0509 18.4144C29.0446 19.0632 28.8077 19.307 28.1503 19.3142C27.3334 19.3231 26.5157 19.3231 25.6988 19.3142C25.0548 19.307 24.8027 19.048 24.7929 18.4081C24.7875 18.0112 24.792 17.6151 24.792 17.2102C23.8246 17.2102 22.9088 17.2102 21.9619 17.2102C21.9619 17.6472 21.9682 18.0601 21.9601 18.4722C21.9495 19.0249 21.7036 19.2981 21.1549 19.3088C20.2712 19.3266 19.3866 19.3266 18.503 19.3088C17.9534 19.2973 17.712 19.0258 17.703 18.4695C17.6977 18.0601 17.7022 17.648 17.7022 17.187ZM42.5321 51.9432C48.3686 51.9726 53.1468 47.2065 53.178 41.3244C53.2092 35.4841 48.4505 30.7064 42.5695 30.6717C36.7054 30.6379 31.9023 35.4262 31.9041 41.303C31.9067 47.1638 36.6502 51.9139 42.5321 51.9432ZM33.9475 49.7858C33.6215 49.3933 33.3097 49.0507 33.038 48.6786C32.8768 48.4579 32.6995 48.3876 32.4332 48.3876C27.6683 48.3947 22.9035 48.392 18.1386 48.3938C17.9988 48.3938 17.8589 48.409 17.7253 48.4161C17.7253 48.9011 17.7253 49.3372 17.7253 49.7858C23.1306 49.7858 28.5146 49.7858 33.9475 49.7858ZM27.606 17.8848C27.606 17.1274 27.6327 16.3815 27.5944 15.6402C27.5757 15.2708 27.2523 15.059 26.8862 15.0821C26.513 15.1061 26.26 15.3215 26.244 15.6784C26.2101 16.4074 26.2342 17.139 26.2342 17.8848C26.7107 17.8848 27.1481 17.8848 27.606 17.8848ZM41.8177 17.891C41.8177 17.1336 41.8391 16.4136 41.8088 15.6953C41.7936 15.3376 41.5531 15.1142 41.179 15.0848C40.8298 15.0581 40.5038 15.2147 40.4806 15.5467C40.4254 16.3219 40.4628 17.1034 40.4628 17.8901C40.9118 17.891 41.3376 17.891 41.8177 17.891ZM34.7323 17.8839C34.7323 17.1487 34.7537 16.4447 34.7243 15.7434C34.7074 15.3411 34.4152 15.0928 34.0544 15.0803C33.6803 15.067 33.3623 15.2895 33.3409 15.6864C33.3035 16.4118 33.3302 17.1407 33.3302 17.8839C33.8014 17.8839 34.2379 17.8839 34.7323 17.8839ZM19.1417 17.8759C19.6298 17.8759 20.0645 17.8759 20.5215 17.8759C20.5215 17.1327 20.5384 16.4136 20.5144 15.6971C20.5019 15.3287 20.2088 15.0901 19.8499 15.0803C19.4722 15.0705 19.1631 15.3091 19.1488 15.698C19.123 16.4145 19.1417 17.1327 19.1417 17.8759Z" fill="#1243C1"/>
<path d="M19.8394 41.2941C18.6716 41.2986 17.7149 40.3578 17.7042 39.1946C17.6935 38.0251 18.676 37.0363 19.8394 37.047C20.9957 37.0576 21.9577 38.0242 21.9577 39.175C21.9586 40.3347 21.0037 41.2897 19.8394 41.2941ZM20.5244 39.1848C20.5298 38.7932 20.21 38.4701 19.8207 38.4754C19.4466 38.4808 19.141 38.7878 19.1366 39.1643C19.1321 39.5479 19.4199 39.8541 19.8002 39.8692C20.1975 39.8852 20.5182 39.5826 20.5244 39.1848Z" fill="#1243C1"/>
<path d="M19.8188 29.9541C18.6617 29.9479 17.7041 28.984 17.7041 27.827C17.7041 26.6539 18.6884 25.6847 19.8607 25.7034C21.0187 25.7221 21.9728 26.6975 21.9585 27.8483C21.9434 29.0045 20.9715 29.9604 19.8188 29.9541ZM20.5244 27.8083C20.5154 27.43 20.2108 27.1337 19.8304 27.1337C19.4331 27.1328 19.1267 27.4478 19.1365 27.8466C19.1463 28.2275 19.4483 28.5221 19.8286 28.5221C20.2242 28.5221 20.5333 28.2044 20.5244 27.8083Z" fill="#1243C1"/>
<path d="M29.0469 27.8356C29.0425 28.9998 28.0893 29.953 26.9278 29.953C25.776 29.9539 24.8086 28.9935 24.797 27.8374C24.7854 26.6759 25.7768 25.6907 26.9456 25.7022C28.1107 25.7138 29.0514 26.6688 29.0469 27.8356ZM26.9117 28.5218C27.3099 28.5281 27.6279 28.2174 27.6261 27.8223C27.6244 27.4431 27.325 27.1432 26.942 27.1352C26.5465 27.1272 26.2231 27.4422 26.2267 27.8321C26.2294 28.2059 26.5376 28.5156 26.9117 28.5218Z" fill="#1243C1"/>
<path d="M26.937 41.2933C25.7709 41.2978 24.8178 40.3615 24.7991 39.1938C24.7804 38.0368 25.779 37.0364 26.9397 37.048C28.1066 37.0595 29.0491 38.0118 29.0482 39.1769C29.0464 40.3464 28.1066 41.2889 26.937 41.2933ZM27.6247 39.1573C27.6158 38.7835 27.3049 38.4782 26.9308 38.4755C26.545 38.4738 26.219 38.8057 26.2288 39.192C26.2386 39.5667 26.5504 39.8702 26.9254 39.8711C27.32 39.872 27.6345 39.5516 27.6247 39.1573Z" fill="#1243C1"/>
<path d="M26.9162 31.3863C28.0912 31.3809 29.0381 32.311 29.047 33.4796C29.0559 34.6633 28.0939 35.6334 26.9189 35.6254C25.7591 35.6183 24.7997 34.6571 24.7988 33.5018C24.797 32.3412 25.7475 31.3916 26.9162 31.3863ZM27.6235 33.5152C27.6316 33.1227 27.3109 32.7952 26.9225 32.7978C26.5528 32.8005 26.2375 33.1138 26.2294 33.4867C26.2205 33.8721 26.5519 34.2103 26.9341 34.2058C27.3037 34.2023 27.6164 33.8899 27.6235 33.5152Z" fill="#1243C1"/>
<path d="M19.826 31.3862C20.9956 31.3845 21.9487 32.3243 21.9576 33.4885C21.9666 34.6553 20.9769 35.6414 19.8126 35.6254C18.6484 35.6094 17.7005 34.6526 17.7041 33.4947C17.7077 32.3297 18.6564 31.3871 19.826 31.3862ZM20.5244 33.5196C20.5333 33.1262 20.2161 32.7969 19.8287 32.7969C19.4563 32.7969 19.1463 33.1049 19.1383 33.4822C19.1294 33.8756 19.4483 34.2085 19.8313 34.2076C20.1974 34.2058 20.5155 33.8908 20.5244 33.5196Z" fill="#1243C1"/>
<path d="M31.91 27.7739C31.943 26.5999 32.9051 25.677 34.0684 25.7037C35.2327 25.7295 36.1671 26.7014 36.144 27.8611C36.1199 29.0475 35.1329 29.9936 33.9615 29.9526C32.7919 29.9117 31.8771 28.9407 31.91 27.7739ZM34.0355 28.5215C34.4105 28.5162 34.7249 28.2082 34.7321 27.838C34.7392 27.4561 34.4069 27.1313 34.015 27.1357C33.6382 27.1402 33.3255 27.4481 33.3202 27.8184C33.313 28.2038 33.6426 28.5259 34.0355 28.5215Z" fill="#1243C1"/>
<path d="M33.3125 41.2939C33.3277 36.2181 37.5251 32.0403 42.5643 32.0848C47.6659 32.1293 51.7511 36.2163 51.7707 41.2948C51.7903 46.3519 47.6187 50.5234 42.5412 50.5234C37.4627 50.5234 33.2974 46.3572 33.3125 41.2939ZM41.8276 33.5836C37.5866 33.831 34.5427 37.8566 34.8028 41.2983C35.0006 41.2983 35.1992 41.2983 35.3988 41.2983C35.6001 41.2983 35.8005 41.2939 36.0018 41.2992C36.5399 41.3143 36.8454 41.5724 36.8472 42.0086C36.849 42.4456 36.5426 42.7126 36.0099 42.7241C35.65 42.7321 35.2901 42.7259 34.9267 42.7259C35.2607 45.5517 38.0026 48.7585 41.8285 49.0424C41.8285 48.6143 41.8143 48.188 41.8321 47.7625C41.857 47.1662 42.3612 46.8245 42.844 47.0594C43.1656 47.2161 43.2511 47.5027 43.2556 47.8266C43.2618 48.2343 43.2573 48.6419 43.2573 49.0531C47.1323 48.6988 49.7664 45.606 50.1726 42.725C49.7815 42.725 49.3949 42.7375 49.0092 42.7224C48.4818 42.701 48.1852 42.3708 48.2485 41.9035C48.2992 41.5297 48.587 41.3108 49.0689 41.3001C49.4911 41.2912 49.9134 41.2983 50.332 41.2983C50.3294 36.7023 46.4562 33.6593 43.2573 33.6068C43.2573 34.0055 43.2645 34.4051 43.2556 34.8047C43.2476 35.1634 43.1282 35.4669 42.7478 35.5826C42.2721 35.7277 41.8579 35.4073 41.833 34.8608C41.8125 34.4363 41.8276 34.0108 41.8276 33.5836Z" fill="#1243C1"/>
<path d="M42.6968 40.957C43.1404 40.5894 43.5502 40.2503 43.959 39.9094C44.71 39.2846 45.46 38.6571 46.2109 38.0324C46.4568 37.8285 46.7151 37.6763 47.0527 37.8179C47.4679 37.9905 47.6282 38.472 47.3779 38.8458C47.3048 38.9544 47.2042 39.0496 47.1026 39.1342C45.7878 40.2325 44.4712 41.3299 43.152 42.4228C42.613 42.8696 42.2344 42.8189 41.8496 42.251C41.4363 41.6423 41.0283 41.0299 40.6257 40.4149C40.3362 39.9726 40.3789 39.5481 40.7201 39.3104C41.0809 39.0594 41.4933 39.1805 41.8087 39.6344C41.9539 39.8427 42.0901 40.058 42.2318 40.269C42.3725 40.4799 42.5159 40.69 42.6968 40.957Z" fill="#1243C1"/>
</svg>
