<svg width="77" height="77" viewBox="0 0 77 77" fill="none" xmlns="http://www.w3.org/2000/svg">
<circle cx="38.5" cy="38.5" r="37" fill="white" stroke="#FF7F2D" stroke-width="3"/>
<g clip-path="url(#clip0_12_6883)">
<path d="M59.4321 62C45.9034 62 32.3736 62 18.845 62C17.8873 61.7221 17.2711 61.0944 17 60.1133C17 46.0378 17 31.9622 17 17.8867C17.2699 16.9056 17.8861 16.2767 18.845 16C25.3165 16 31.788 16 38.2606 16C38.3991 16.1282 38.5447 16.2492 38.6761 16.3845C41.3262 19.093 43.981 21.7967 46.6147 24.5232C46.8153 24.7304 46.955 25.091 46.9644 25.3845C47.002 26.6854 46.9797 27.9887 46.982 29.2909C46.982 29.449 46.9961 29.6071 47.0055 29.8072C47.2226 29.8072 47.3951 29.8072 47.5688 29.8072C51.2576 29.8072 54.9464 29.8563 58.6328 29.788C60.7712 29.7485 62.0364 31.3525 62.0012 33.2153C61.9343 36.7168 61.9824 40.2195 61.9824 43.7222C61.9824 48.751 61.9847 53.7799 61.9812 58.8099C61.9801 60.4008 61.1092 61.5292 59.5952 61.9305C59.5365 61.9449 59.486 61.976 59.4321 62ZM37.2349 17.5309C37.0166 17.5309 36.871 17.5309 36.7267 17.5309C31.0028 17.5309 25.2789 17.5309 19.555 17.5309C18.7206 17.5309 18.4952 17.7633 18.4952 18.6294C18.4952 32.2078 18.4952 45.7862 18.4952 59.3646C18.4952 60.2474 18.7159 60.4703 19.5926 60.4703C25.6826 60.4703 31.7715 60.4703 37.8616 60.4703C38.0153 60.4703 38.1703 60.4703 38.2642 60.4703C38.1691 59.8629 38.0048 59.2963 38.0036 58.7297C37.9872 50.1814 37.9919 41.633 37.993 33.0847C37.993 31.0782 39.2312 29.8144 41.203 29.8072C42.4623 29.8024 43.7204 29.806 44.9798 29.806C45.1347 29.806 45.2908 29.806 45.4457 29.806C45.4457 28.4919 45.4457 27.2436 45.4457 25.9691C43.5104 25.9691 41.609 25.9703 39.7077 25.9691C38.1726 25.9679 37.2407 25.0263 37.236 23.4606C37.2302 21.6637 37.2349 19.8681 37.2349 18.0712C37.2349 17.9095 37.2349 17.7478 37.2349 17.5309ZM39.4906 45.894C39.4906 50.1298 39.4906 54.3657 39.4906 58.6015C39.4906 59.9048 40.0352 60.4691 41.2969 60.4691C47.0923 60.4691 52.8878 60.4691 58.6845 60.4691C59.9215 60.4691 60.4837 59.8953 60.4837 58.6351C60.4837 50.149 60.4837 41.6618 60.4837 33.1757C60.4837 31.8999 59.9403 31.3405 58.6962 31.3405C52.8855 31.3393 47.0759 31.3393 41.2652 31.3405C40.0434 31.3405 39.4906 31.9023 39.4906 33.141C39.4894 37.3924 39.4906 41.6438 39.4906 45.894ZM38.7653 18.7887C38.7653 18.7876 38.743 18.8295 38.743 18.8702C38.7407 20.4407 38.7324 22.0111 38.7442 23.5816C38.7489 24.1506 39.0399 24.4297 39.5974 24.4345C40.5915 24.4441 41.5867 24.4369 42.5808 24.4369C43.1583 24.4369 43.7357 24.4369 44.2955 24.4369C42.4423 22.5454 40.6068 20.6695 38.7653 18.7887Z" fill="#FF7F2D"/>
<path d="M23.4421 53.5618C23.7637 53.5618 24.0853 53.5546 24.4057 53.563C24.9104 53.5774 25.2531 53.902 25.2448 54.3453C25.2366 54.7777 24.9104 55.0856 24.4221 55.0892C23.4703 55.0976 22.5185 55.0892 21.5666 55.094C21.2263 55.0952 20.9587 54.9718 20.8225 54.6471C20.6805 54.3105 20.7533 54.0015 21.0103 53.7439C21.5432 53.2096 22.0772 52.6778 22.5795 52.0297C22.2567 52.0297 21.934 52.0345 21.6112 52.0285C21.0761 52.0201 20.765 51.7422 20.7603 51.2762C20.7545 50.8066 21.0655 50.506 21.5901 50.5012C22.5267 50.4928 23.4644 50.5024 24.401 50.4976C24.7566 50.4964 25.0277 50.6293 25.1768 50.9695C25.3305 51.3205 25.2143 51.6116 24.9667 51.8632C24.4409 52.3975 23.9104 52.9293 23.3823 53.4612C23.4034 53.496 23.4233 53.5295 23.4421 53.5618Z" fill="#FF7F2D"/>
<path d="M21.9923 32.8834C21.6273 32.5252 21.3374 32.2521 21.0604 31.9646C20.6954 31.586 20.6672 31.138 20.9724 30.8146C21.2987 30.4696 21.7282 30.4935 22.1261 30.896C22.4054 31.1788 22.6671 31.4782 22.9934 31.8328C23.3185 31.4818 23.5885 31.1728 23.8772 30.8841C24.2774 30.4828 24.7081 30.4612 25.032 30.8074C25.3442 31.1416 25.3208 31.5645 24.9405 31.9562C24.6553 32.2509 24.3431 32.518 23.984 32.8522C24.3548 33.208 24.6612 33.4823 24.9464 33.7794C25.3172 34.1664 25.3313 34.6024 25.0086 34.9282C24.6964 35.2433 24.2492 35.2205 23.8842 34.8516C23.5955 34.5593 23.3256 34.249 22.9981 33.8932C22.6601 34.2586 22.3808 34.5832 22.0791 34.8851C21.713 35.2493 21.2599 35.2577 20.9536 34.9294C20.659 34.6144 20.6731 34.1699 21.0182 33.8106C21.3127 33.5039 21.6343 33.2224 21.9923 32.8834Z" fill="#FF7F2D"/>
<path d="M33.5025 42.4225C33.5002 41.5684 33.553 41.4941 34.3898 41.2761C34.7478 41.1826 34.9496 40.9478 34.9813 40.5873C35.0118 40.2423 34.8475 39.9667 34.533 39.8374C34.2079 39.7044 33.9039 39.7703 33.6586 40.0542C33.5342 40.1979 33.4168 40.368 33.2584 40.4555C32.9439 40.6292 32.6258 40.5741 32.3817 40.2986C32.1258 40.0087 32.1258 39.6792 32.316 39.3462C32.7643 38.558 33.6715 38.1303 34.6046 38.2705C35.466 38.3999 36.1949 39.0755 36.4132 39.9476C36.6714 40.9838 36.2324 42.0104 35.3264 42.553C35.1761 42.6429 35.0412 42.8202 34.979 42.9879C34.8311 43.3928 34.5506 43.6216 34.1609 43.5833C33.7771 43.5449 33.526 43.2586 33.5013 42.8238C33.4966 42.692 33.5025 42.5566 33.5025 42.4225Z" fill="#FF7F2D"/>
<path d="M33.5083 32.4606C33.5001 31.5993 33.5471 31.5334 34.3851 31.313C34.7407 31.2196 34.9472 30.9872 34.9813 30.6266C35.0141 30.2804 34.851 30.0037 34.5376 29.8743C34.1949 29.7317 33.8898 29.8192 33.6316 30.1151C33.4825 30.2864 33.2877 30.5224 33.1058 30.5308C32.8499 30.5415 32.5248 30.4325 32.3417 30.2552C32.0894 30.0085 32.1493 29.6587 32.3382 29.3472C32.8229 28.553 33.7536 28.1397 34.689 28.3134C35.581 28.4799 36.2805 29.2226 36.4601 30.1953C36.6209 31.0686 36.2089 32.0341 35.4366 32.5025C35.1761 32.6607 34.9965 32.8128 34.9155 33.1386C34.8217 33.5172 34.5001 33.6681 34.1233 33.6106C33.7642 33.5555 33.5518 33.3255 33.5107 32.9541C33.4943 32.79 33.5083 32.6247 33.5083 32.4606Z" fill="#FF7F2D"/>
<path d="M33.5002 52.4035C33.4462 51.7374 33.6175 51.3062 34.3757 51.2355C34.7431 51.202 34.9426 50.9264 34.9801 50.5671C35.0165 50.2233 34.8592 49.9466 34.5459 49.8088C34.2196 49.665 33.9156 49.7309 33.6703 50.01C33.6316 50.0544 33.5999 50.1059 33.5612 50.1502C33.2455 50.5156 32.8547 50.5802 32.5131 50.3251C32.161 50.0616 32.1094 49.6327 32.3805 49.2134C33.2044 47.9388 35.0658 47.8622 35.9977 49.0649C36.865 50.1849 36.5528 51.7913 35.3393 52.5101C35.1961 52.5951 35.047 52.7449 34.9942 52.8982C34.8358 53.363 34.5424 53.6098 34.1328 53.5511C33.7443 53.4948 33.5154 53.1941 33.5002 52.7161C33.4978 52.6131 33.5013 52.5089 33.5002 52.4035Z" fill="#FF7F2D"/>
<path d="M22.0164 42.8573C21.6584 42.5123 21.3756 42.2524 21.1068 41.9793C20.696 41.5624 20.6561 41.0976 20.9883 40.7658C21.331 40.4244 21.7394 40.4723 22.1748 40.9095C22.4248 41.1599 22.6725 41.4138 22.9236 41.6642C22.9424 41.6834 22.9764 41.6858 23.0914 41.7301C23.3403 41.451 23.602 41.1311 23.8919 40.8388C24.2686 40.4579 24.6958 40.4447 25.0151 40.7741C25.3343 41.1036 25.3179 41.5348 24.9423 41.9242C23.9975 42.9017 23.0468 43.8732 22.0915 44.8399C21.7218 45.2136 21.2782 45.2316 20.966 44.9118C20.655 44.5931 20.6702 44.1331 21.0352 43.7618C21.3333 43.4575 21.6608 43.1832 22.0164 42.8573Z" fill="#FF7F2D"/>
<path d="M29.0361 40.531C29.5032 40.531 29.9703 40.5214 30.4362 40.5334C30.9198 40.5465 31.2343 40.858 31.2355 41.2976C31.2367 41.7433 30.9268 42.0535 30.4398 42.0583C29.4774 42.0679 28.5138 42.0679 27.5514 42.0583C27.0655 42.0535 26.7522 41.7433 26.751 41.3012C26.7498 40.8652 27.0679 40.5465 27.5479 40.5346C28.0443 40.5214 28.5408 40.531 29.0361 40.531Z" fill="#FF7F2D"/>
<path d="M28.9561 45.1251C28.489 45.1251 28.0219 45.1334 27.5559 45.1227C27.063 45.1119 26.7555 44.8148 26.752 44.3716C26.7496 43.9367 27.0653 43.6061 27.5454 43.5989C28.5077 43.5845 29.4713 43.5845 30.4337 43.5989C30.9196 43.6061 31.233 43.9247 31.2365 44.3608C31.2388 44.8232 30.9278 45.1155 30.4008 45.1239C29.9185 45.1311 29.4373 45.1251 28.9561 45.1251Z" fill="#FF7F2D"/>
<path d="M28.9726 55.0916C28.4914 55.0916 28.0102 55.1012 27.529 55.0892C27.0678 55.0773 26.765 54.7802 26.7532 54.3549C26.7415 53.9177 27.056 53.5751 27.5302 53.5679C28.5079 53.5535 29.4855 53.5523 30.462 53.5679C30.9385 53.5751 31.2483 53.9141 31.2366 54.3549C31.2248 54.7838 30.9279 55.0773 30.462 55.0892C29.9643 55.1012 29.4679 55.0916 28.9726 55.0916Z" fill="#FF7F2D"/>
<path d="M28.979 32.0927C28.4978 32.0927 28.0166 32.1011 27.5354 32.0903C27.0706 32.0795 26.7678 31.7872 26.7526 31.362C26.7361 30.9223 27.0483 30.5762 27.5225 30.569C28.5001 30.5534 29.4778 30.5534 30.4543 30.5678C30.9331 30.575 31.2429 30.908 31.2359 31.3488C31.2277 31.7944 30.9225 32.0819 30.4237 32.0915C29.9414 32.0999 29.4602 32.0927 28.979 32.0927Z" fill="#FF7F2D"/>
<path d="M28.9479 35.1583C28.4807 35.1583 28.0136 35.1679 27.5477 35.1559C27.0559 35.1427 26.7508 34.8409 26.752 34.3964C26.7531 33.9772 27.0536 33.6442 27.5101 33.6358C28.5019 33.6166 29.4936 33.6154 30.4853 33.637C30.9442 33.6465 31.2376 33.9796 31.2353 34.4036C31.2329 34.8517 30.9325 35.1451 30.4349 35.1571C29.9396 35.1667 29.4431 35.1583 28.9479 35.1583Z" fill="#FF7F2D"/>
<path d="M28.9797 52.0296C28.4985 52.0296 28.0161 52.0392 27.5361 52.0273C27.0584 52.0153 26.7439 51.693 26.7521 51.251C26.7603 50.8293 27.0678 50.5107 27.522 50.5047C28.4997 50.4915 29.4773 50.4927 30.4538 50.5035C30.9326 50.5095 31.2437 50.8365 31.2354 51.2809C31.2272 51.7242 30.9162 52.0177 30.4233 52.0273C29.9421 52.0368 29.4609 52.0296 28.9797 52.0296Z" fill="#FF7F2D"/>
<path d="M34.234 56.6201C33.8079 56.6153 33.4946 56.2835 33.5051 55.8451C33.5145 55.4378 33.8361 55.106 34.2305 55.0988C34.6318 55.0904 34.9922 55.451 34.9933 55.863C34.9945 56.2811 34.6506 56.6249 34.234 56.6201Z" fill="#FF7F2D"/>
<path d="M34.9924 45.9072C34.9877 46.3276 34.6427 46.6619 34.2237 46.6523C33.7977 46.6427 33.4902 46.3073 33.5054 45.8688C33.5195 45.4639 33.8493 45.1345 34.2401 45.1333C34.6427 45.1309 34.9971 45.4963 34.9924 45.9072Z" fill="#FF7F2D"/>
<path d="M34.2523 35.1666C34.656 35.1726 35.0046 35.5427 34.9917 35.9524C34.9788 36.3753 34.6326 36.7011 34.2124 36.6843C33.8028 36.6688 33.5059 36.3537 33.5059 35.9332C33.5047 35.508 33.8439 35.1606 34.2523 35.1666Z" fill="#FF7F2D"/>
<path d="M49.9914 45.1262C47.562 45.1262 45.1314 45.1274 42.7019 45.125C41.5517 45.1238 40.9872 44.5393 40.9872 43.3509C40.986 40.4472 40.986 37.5434 40.9872 34.6385C40.9872 33.4573 41.5553 32.8751 42.7113 32.8739C47.5561 32.8727 52.4009 32.8727 57.2457 32.8739C58.4253 32.8739 58.9863 33.4537 58.9863 34.6696C58.9874 37.559 58.9874 40.4472 58.9863 43.3365C58.9863 44.544 58.4194 45.1238 57.2375 45.1238C54.8222 45.1274 52.4068 45.1262 49.9914 45.1262ZM57.4582 43.5773C57.4582 40.4975 57.4582 37.4692 57.4582 34.4073C56.9758 34.4073 56.5228 34.4252 56.0721 34.4013C55.7705 34.3845 55.6073 34.4911 55.4559 34.7655C53.9009 37.5758 52.3282 40.3765 50.7625 43.1796C50.6956 43.2994 50.6358 43.4228 50.556 43.5785C52.895 43.5773 55.1614 43.5773 57.4582 43.5773ZM42.5083 43.5929C42.669 43.5929 42.7876 43.5761 42.9014 43.5953C43.3826 43.678 43.6455 43.4731 43.8873 43.0323C45.3778 40.3082 46.9047 37.6045 48.4187 34.8924C48.495 34.7547 48.5631 34.6121 48.6558 34.43C46.5773 34.43 44.5551 34.43 42.5083 34.43C42.5083 37.4811 42.5083 40.5095 42.5083 43.5929ZM53.9102 34.4073C52.8375 34.4073 51.8188 34.4193 50.8001 34.4001C50.5125 34.3941 50.3588 34.4899 50.2179 34.7439C48.6546 37.5626 47.0796 40.3741 45.5081 43.1892C45.4459 43.3018 45.3954 43.4216 45.3121 43.5941C46.3707 43.5941 47.3754 43.5797 48.3777 43.6025C48.7004 43.6097 48.8671 43.4971 49.0243 43.2144C50.5712 40.4208 52.1345 37.6357 53.6919 34.8469C53.7624 34.7211 53.821 34.5894 53.9102 34.4073Z" fill="#FF7F2D"/>
<path d="M47.744 49.749C47.744 49.4651 47.7335 49.18 47.7464 48.8961C47.7804 48.1043 48.3778 47.4754 49.1466 47.4454C49.7017 47.4239 50.2592 47.425 50.8143 47.4454C51.5854 47.473 52.1957 48.0959 52.225 48.8865C52.2462 49.4543 52.2473 50.0245 52.2239 50.5923C52.1922 51.377 51.5737 51.9951 50.8014 52.025C50.2897 52.0442 49.7768 52.037 49.2651 52.0286C48.3719 52.0143 47.7605 51.383 47.7417 50.4678C47.737 50.2282 47.7405 49.9886 47.7405 49.749C47.7429 49.749 47.744 49.749 47.744 49.749ZM49.2604 50.4749C49.7756 50.4749 50.238 50.4749 50.7075 50.4749C50.7075 49.9658 50.7075 49.4819 50.7075 49.0027C50.2052 49.0027 49.7322 49.0027 49.2604 49.0027C49.2604 49.5094 49.2604 49.9826 49.2604 50.4749Z" fill="#FF7F2D"/>
<path d="M43.9788 52.0286C43.7159 52.0286 43.4518 52.037 43.1889 52.0262C42.4061 51.9939 41.797 51.4045 41.7594 50.6091C41.7312 50.0269 41.7312 49.4411 41.7594 48.8589C41.797 48.0587 42.4026 47.4682 43.1877 47.443C43.6994 47.4274 44.2123 47.431 44.724 47.4406C45.5726 47.4562 46.1946 48.0563 46.2369 48.9236C46.2627 49.4615 46.2627 50.0018 46.2369 50.5396C46.1958 51.4069 45.5726 52.0071 44.7252 52.0286C44.4764 52.0346 44.2276 52.0298 43.9788 52.0286ZM44.7264 49.0075C44.2065 49.0075 43.7358 49.0075 43.2711 49.0075C43.2711 49.5166 43.2711 49.9874 43.2711 50.4701C43.7675 50.4701 44.2382 50.4701 44.7264 50.4701C44.7264 49.9694 44.7264 49.4998 44.7264 49.0075Z" fill="#FF7F2D"/>
<path d="M58.2181 49.7441C58.2181 50.028 58.231 50.3131 58.2157 50.597C58.1723 51.3757 57.5937 51.9866 56.8379 52.0213C56.2687 52.0477 55.6959 52.0477 55.1267 52.0213C54.3838 51.9878 53.784 51.3757 53.7394 50.597C53.7078 50.0304 53.7089 49.459 53.7371 48.8924C53.7782 48.0562 54.4084 47.4585 55.2347 47.4417C55.717 47.4321 56.2006 47.4333 56.683 47.4405C57.5902 47.4537 58.1923 48.0574 58.2216 48.981C58.2298 49.235 58.2228 49.4901 58.2228 49.7441C58.2204 49.7441 58.2193 49.7441 58.2181 49.7441ZM56.7076 49.0074C56.1877 49.0074 55.717 49.0074 55.2511 49.0074C55.2511 49.5165 55.2511 49.9873 55.2511 50.4724C55.7476 50.4724 56.2194 50.4724 56.7076 50.4724C56.7076 49.9717 56.7076 49.4997 56.7076 49.0074Z" fill="#FF7F2D"/>
<path d="M52.2285 55.875C52.2285 56.1589 52.2414 56.4441 52.2261 56.728C52.1839 57.5018 51.6006 58.1127 50.8436 58.1475C50.2743 58.1738 49.7016 58.1738 49.1324 58.1475C48.3566 58.1127 47.771 57.4874 47.7475 56.6872C47.7322 56.1494 47.7334 55.6091 47.7463 55.0712C47.7663 54.2375 48.3707 53.6038 49.1934 53.5679C49.7192 53.5451 50.2473 53.5451 50.7731 53.5679C51.6123 53.6038 52.2085 54.2471 52.2296 55.1108C52.2355 55.3647 52.2308 55.6199 52.2308 55.8738C52.2308 55.875 52.2296 55.875 52.2285 55.875ZM50.7109 56.6058C50.7109 56.0799 50.7109 55.6091 50.7109 55.1227C50.2157 55.1227 49.7439 55.1227 49.2697 55.1227C49.2697 55.6355 49.2697 56.1182 49.2697 56.6058C49.7638 56.6058 50.225 56.6058 50.7109 56.6058Z" fill="#FF7F2D"/>
<path d="M44.0019 58.1474C43.6944 58.1474 43.3857 58.1666 43.0806 58.1438C42.3834 58.0899 41.8072 57.5233 41.7661 56.8094C41.7309 56.1828 41.7297 55.5515 41.7661 54.9262C41.8095 54.1823 42.4093 53.6097 43.1639 53.5714C43.7038 53.5438 44.2472 53.545 44.7871 53.5702C45.6215 53.6073 46.2119 54.2458 46.2389 55.1239C46.2541 55.6174 46.2541 56.1122 46.2401 56.6057C46.2131 57.5233 45.6039 58.1343 44.7037 58.1594C44.4702 58.1654 44.2355 58.1606 44.0019 58.1606C44.0019 58.1546 44.0019 58.151 44.0019 58.1474ZM43.2778 55.1179C43.2778 55.6258 43.2778 56.1074 43.2778 56.6009C43.7707 56.6009 44.2319 56.6009 44.7131 56.6009C44.7131 56.0942 44.7131 55.6114 44.7131 55.1179C44.219 55.1179 43.7578 55.1179 43.2778 55.1179Z" fill="#FF7F2D"/>
<path d="M58.222 55.8522C58.222 56.1218 58.2314 56.3913 58.2209 56.6608C58.188 57.5174 57.6071 58.1235 56.7738 58.1522C56.248 58.1702 55.7198 58.1702 55.194 58.1522C54.3866 58.1247 53.7798 57.5305 53.7387 56.7088C53.7105 56.1565 53.7141 55.6007 53.7375 55.0484C53.7739 54.2123 54.3901 53.599 55.214 53.5666C55.6811 53.5487 56.1506 53.5582 56.6188 53.563C57.6012 53.5738 58.2056 54.1836 58.2256 55.179C58.2303 55.403 58.2267 55.6282 58.2267 55.8522C58.2232 55.8522 58.222 55.8522 58.222 55.8522ZM56.7116 55.1299C56.1975 55.1299 55.7257 55.1299 55.2539 55.1299C55.2539 55.639 55.2539 56.111 55.2539 56.5902C55.755 56.5902 56.2268 56.5902 56.7116 56.5902C56.7116 56.093 56.7116 55.6318 56.7116 55.1299Z" fill="#FF7F2D"/>
</g>
<defs>
<clipPath id="clip0_12_6883">
<rect width="45" height="46" fill="white" transform="translate(17 16)"/>
</clipPath>
</defs>
</svg>
