<svg width="68" height="68" viewBox="0 0 68 68" fill="none" xmlns="http://www.w3.org/2000/svg">
<circle cx="33.6043" cy="33.6043" r="32.1043" fill="white" stroke="#1243C1" stroke-width="3"/>
<path d="M30.9625 56.2612C30.3594 56.1268 29.7435 56.0317 29.1543 55.8509C25.278 54.6585 22.6729 51.2062 22.565 47.1478C22.558 46.8743 22.5638 46.5997 22.5638 46.2625C21.1047 46.3586 19.8486 45.9855 18.9624 44.771C18.4475 44.0652 18.2224 43.2656 18.3001 42.3976C18.3941 41.35 18.8662 40.4982 19.7001 39.8504C20.5236 39.2107 21.4782 39.0601 22.5592 39.1366C22.5592 38.7425 22.5592 38.3891 22.5592 38.0345C22.5604 36.8524 22.9756 36.3796 24.183 36.2301C23.8293 34.7966 23.9696 33.4245 24.7757 32.1648C25.5842 30.9005 26.7533 30.1669 28.2496 29.8888C28.3249 28.4796 28.9142 27.352 30.19 26.681C31.4682 26.0089 32.7255 26.1595 33.9619 26.9534C33.9619 26.2291 33.9619 25.5592 33.9619 24.828C33.6952 24.828 33.4388 24.8349 33.1837 24.8268C32.1444 24.7967 31.0866 24.872 30.0694 24.7063C27.4666 24.281 25.5296 22.0305 25.4299 19.3836C25.3754 17.9373 25.4171 16.4876 25.4171 15.039C25.4171 14.9845 25.4357 14.9301 25.445 14.8756C25.4983 14.8571 25.5378 14.8316 25.5784 14.8316C27.1546 14.8466 28.7332 14.8177 30.3049 14.9069C30.8361 14.937 31.1446 14.8258 31.5227 14.4654C32.3706 13.6588 33.3008 12.9391 34.1928 12.1801C34.3424 12.0526 34.4711 11.9019 34.6091 11.7617C34.6671 11.7617 34.7251 11.7617 34.7831 11.7617C35.1891 12.1244 35.595 12.4872 36.001 12.8487C36.7572 13.5209 37.5112 14.1953 38.2732 14.8605C38.3474 14.9254 38.475 14.9648 38.5759 14.9625C39.8889 14.9231 41.2019 14.8686 42.5149 14.8281C42.9869 14.813 43.4613 14.8258 43.909 14.8258C43.945 14.9046 43.967 14.9301 43.967 14.9556C43.9496 16.6046 44.0355 18.2641 43.887 19.9016C43.6457 22.5578 41.304 24.682 38.6351 24.8071C37.7397 24.8488 36.8419 24.8233 35.9453 24.828C35.7887 24.8291 35.6322 24.828 35.4396 24.828C35.4396 25.5361 35.4396 26.2082 35.4396 26.9418C36.6308 26.1792 37.8846 26.0019 39.1617 26.6578C40.4456 27.3184 41.0581 28.4298 41.1369 29.8807C42.5972 30.1518 43.778 30.868 44.5922 32.1254C45.4099 33.3874 45.5781 34.7572 45.2023 36.2266C45.3171 36.2429 45.4122 36.2579 45.5073 36.2684C46.281 36.346 46.8029 36.9127 46.8296 37.7285C46.8447 38.1747 46.8319 38.6209 46.8319 39.1273C48.2551 39.0288 49.4811 39.3683 50.3649 40.5214C50.9054 41.226 51.1583 42.0303 51.0956 42.9168C51.0202 43.9841 50.5493 44.8521 49.7096 45.5173C48.8803 46.1744 47.9083 46.3192 46.8922 46.259C46.8215 47.0401 46.7971 47.791 46.6811 48.5269C46.049 52.5238 42.748 55.6841 38.7174 56.1835C38.62 56.1951 38.526 56.2357 38.4298 56.2623C35.9395 56.2612 33.4516 56.2612 30.9625 56.2612ZM24.0288 37.7019C24.016 37.8166 24.0021 37.8873 24.0021 37.9591C24.0044 41.102 23.9592 44.246 24.0218 47.3877C24.0995 51.2108 27.3402 54.5878 31.1608 54.7744C33.5131 54.8891 35.8746 54.7964 38.2326 54.7929C38.4054 54.7929 38.5794 54.7674 38.7499 54.7373C42.7294 54.0338 45.3797 50.8771 45.3902 46.821C45.3971 43.9389 45.3925 41.0568 45.3902 38.1747C45.3902 38.0217 45.3751 37.8699 45.367 37.703C38.2361 37.7019 31.1527 37.7019 24.0288 37.7019ZM37.0089 31.9261C37.1574 31.94 37.256 31.9504 37.3557 31.9597C38.8787 32.0999 40.049 30.6432 39.585 29.1888C39.2719 28.2073 38.286 27.5664 37.3047 27.7066C36.1959 27.8654 35.4187 28.7114 35.4083 29.8413C35.3897 31.8971 35.4025 33.9529 35.4037 36.0099C35.4037 36.0795 35.4176 36.1478 35.4269 36.2336C37.3314 36.2336 39.2127 36.2336 41.0975 36.2336C41.043 35.5012 40.673 35.0631 40.0049 34.8661C39.8854 34.8314 39.7184 34.6981 39.7091 34.5984C39.6743 34.2148 39.6952 33.8278 39.6952 33.4199C40.3192 33.4094 40.8272 33.5856 41.2889 33.9008C42.1089 34.4605 42.494 35.2717 42.5647 36.2649C42.8176 36.2649 43.0356 36.244 43.2479 36.2695C43.5796 36.3101 43.7292 36.1791 43.8244 35.8558C44.3915 33.9158 43.2514 31.9029 41.2958 31.3907C40.9502 31.3003 40.775 31.3432 40.579 31.6792C39.7787 33.049 38.0749 33.7258 36.6784 33.2518C36.7828 32.8265 36.8906 32.3966 37.0089 31.9261ZM33.9712 36.2649C33.9712 34.0074 34.0199 31.8079 33.9515 29.6118C33.9167 28.5004 32.9366 27.6973 31.8568 27.6869C30.8338 27.6765 29.8989 28.4576 29.7423 29.4542C29.5707 30.5482 30.1599 31.5575 31.198 31.86C31.5622 31.9655 31.9623 31.9492 32.3973 31.9944C32.4959 32.3827 32.6084 32.8219 32.7197 33.2634C32.6339 33.2959 32.5956 33.3144 32.555 33.3248C31.1017 33.6644 29.5672 32.9691 28.7553 31.5981C28.6567 31.4312 28.5906 31.2922 28.3365 31.3316C26.2627 31.6503 24.8674 34.0294 25.6236 35.9902C25.6642 36.0957 25.7686 36.2417 25.8556 36.2498C26.178 36.2811 26.5051 36.2626 26.8183 36.2626C27.1094 34.4478 28.289 33.3005 29.6982 33.4593C29.6982 33.7675 29.6855 34.0827 29.7017 34.3968C29.7168 34.6772 29.6658 34.829 29.334 34.8974C28.6776 35.033 28.2612 35.6379 28.3331 36.2649C30.0787 36.2649 31.8278 36.2649 33.5769 36.2649C33.6929 36.2649 33.8077 36.2649 33.9712 36.2649ZM34.717 13.5997C33.9596 14.2359 33.2393 14.7771 32.5933 15.3971C31.1713 16.7622 30.7792 18.4217 31.4091 20.2829C31.8336 21.5356 32.7139 22.3932 33.9875 22.9471C33.9875 22.6389 33.9643 22.3944 33.9921 22.1556C34.0431 21.7292 33.8877 21.4232 33.5734 21.1358C33.0514 20.6607 32.5678 20.145 32.0911 19.6699C32.4355 19.3083 32.7522 18.9768 33.1755 18.533C33.4296 18.8494 33.6697 19.1495 33.9886 19.547C33.9886 18.38 33.9886 17.3475 33.9886 16.3068C34.4839 16.3068 34.9351 16.3068 35.4257 16.3068C35.4257 16.8978 35.4257 17.4506 35.4257 18.0046C35.4582 18.0243 35.4918 18.0428 35.5243 18.0625C35.776 17.7705 36.0277 17.4784 36.2643 17.2038C36.6471 17.5711 36.9753 17.8864 37.3337 18.2305C36.8523 18.7022 36.4104 19.1831 35.9175 19.6038C35.5069 19.9549 35.3515 20.3455 35.3897 20.8843C35.4373 21.5507 35.4013 22.2228 35.4013 22.9089C35.5139 22.8869 35.5591 22.8869 35.5962 22.8695C38.3463 21.6075 39.1628 18.0312 37.1574 15.7853C36.4441 14.9845 35.5533 14.339 34.717 13.5997ZM26.8647 16.2941C26.8647 17.3336 26.8531 18.3314 26.8681 19.328C26.8832 20.2736 27.2231 21.1115 27.8239 21.8323C28.8794 23.0966 30.2585 23.5254 31.9414 23.3771C31.0402 22.6238 30.4324 21.7628 30.0404 20.7418C29.9406 20.4834 29.7794 20.2296 29.5881 20.0279C29.0046 19.4126 28.3922 18.8239 27.8564 18.2908C28.1892 17.906 28.4862 17.563 28.8411 17.1528C29.138 17.4807 29.406 17.7786 29.6878 18.0903C29.8513 17.4726 30.0033 16.8967 30.1633 16.2941C29.0684 16.2941 27.9909 16.2941 26.8647 16.2941ZM41.6078 18.2352C41.1404 18.6941 40.6939 19.146 40.2322 19.5806C39.7648 20.0198 39.367 20.4822 39.1698 21.1242C39.0503 21.5136 38.7975 21.8763 38.5481 22.2089C38.2419 22.6169 37.8788 22.9819 37.5042 23.4049C37.7953 23.4049 38.0505 23.4107 38.3057 23.4037C40.3668 23.3551 42.1228 21.9714 42.4267 19.9364C42.603 18.7543 42.4592 17.5236 42.4592 16.3103C41.4014 16.3103 40.3181 16.3103 39.2266 16.3103C39.3878 16.9164 39.5386 17.4819 39.7068 18.1135C39.9979 17.7902 40.2751 17.4842 40.5326 17.1991C40.9142 17.5665 41.2332 17.8736 41.6078 18.2352ZM47.8619 41.3894C48.1229 41.7834 48.3757 42.1635 48.646 42.5714C48.2017 42.8681 47.7946 43.1405 47.3875 43.4116C46.7739 43.8196 46.6974 44.0374 46.9027 44.8023C48.0695 44.9471 48.922 44.5832 49.3999 43.7384C49.8221 42.991 49.7513 42.0442 49.2224 41.3732C48.6738 40.6779 47.7181 40.3696 46.8586 40.6106C46.8586 41.0649 46.8586 41.5192 46.8586 42.0326C47.2158 41.8054 47.5267 41.6049 47.8619 41.3894ZM20.7475 42.568C21.0282 42.145 21.2752 41.7741 21.5327 41.3871C21.8714 41.6073 22.1857 41.8112 22.5302 42.0349C22.5302 41.4949 22.5302 41.0383 22.5302 40.5666C21.4875 40.453 20.5909 40.65 20.0272 41.5899C19.5598 42.3675 19.598 43.1671 20.1084 43.9192C20.6187 44.6725 21.5559 44.9935 22.5232 44.7803C22.6381 44.1776 22.6149 43.6619 21.9387 43.3525C21.5246 43.1636 21.1674 42.8507 20.7475 42.568Z" fill="#1243C1"/>
<path d="M46.3891 25.7364C46.1153 25.3274 45.8694 24.9577 45.5957 24.5486C47.9653 22.9633 50.3141 21.3918 52.715 19.7856C52.9783 20.1773 53.23 20.5517 53.5107 20.97C51.1283 22.5658 48.7715 24.143 46.3891 25.7364Z" fill="#1243C1"/>
<path d="M47.8604 36.0282C47.9543 35.5496 48.0413 35.1057 48.1364 34.626C50.941 35.1846 53.698 35.7327 56.52 36.2948C56.4318 36.7583 56.3483 37.201 56.2544 37.6958C53.4475 37.1384 50.6788 36.5879 47.8604 36.0282Z" fill="#1243C1"/>
<path d="M48.1405 30.7497C48.0419 30.2526 47.9584 29.8296 47.8633 29.351C50.6563 28.7947 53.4214 28.2431 56.2527 27.6787C56.3443 28.1376 56.4336 28.5792 56.5333 29.0786C53.7253 29.6384 50.959 30.1888 48.1405 30.7497Z" fill="#1243C1"/>
<path d="M46.958 26.8361C48.293 26.2822 49.5805 25.7479 50.9097 25.1963C51.093 25.639 51.2681 26.0596 51.456 26.5139C50.1361 27.0621 48.837 27.6009 47.5066 28.1526C47.3199 27.7052 47.1505 27.2973 46.958 26.8361Z" fill="#1243C1"/>
<path d="M44.7574 23.5324C44.4674 23.2381 44.1565 22.9206 43.8828 22.6424C44.8629 21.6597 45.8581 20.6642 46.8498 19.6699C47.1073 19.9353 47.4239 20.2644 47.7232 20.5727C46.7582 21.5345 45.7699 22.5219 44.7574 23.5324Z" fill="#1243C1"/>
<path d="M52.5105 32.0225C52.5105 32.4906 52.5105 32.9206 52.5105 33.3772C51.099 33.3772 49.7048 33.3772 48.2793 33.3772C48.2793 32.9426 48.2793 32.5034 48.2793 32.0225C49.6723 32.0225 51.0723 32.0225 52.5105 32.0225Z" fill="#1243C1"/>
<path d="M54.868 23.5488C55.0594 24.0135 55.2264 24.4215 55.4097 24.8676C54.5259 25.235 53.6791 25.5884 52.786 25.9604C52.6016 25.5235 52.4242 25.1052 52.2305 24.6486C53.1039 24.2847 53.9622 23.9266 54.868 23.5488Z" fill="#1243C1"/>
<path d="M50.7291 17.5493C50.0993 18.1808 49.4498 18.8333 48.7817 19.502C48.508 19.1949 48.2134 18.8634 47.957 18.5737C48.5636 17.9665 49.2213 17.3082 49.8639 16.665C50.1132 16.9211 50.431 17.2456 50.7291 17.5493Z" fill="#1243C1"/>
<path d="M56.797 32.0156C56.797 32.4792 56.797 32.9195 56.797 33.3819C55.8551 33.3819 54.9365 33.3819 53.9912 33.3819C53.9912 32.9311 53.9912 32.4908 53.9912 32.0156C54.9203 32.0156 55.847 32.0156 56.797 32.0156Z" fill="#1243C1"/>
<path d="M21.5377 29.3369C21.4426 29.819 21.3579 30.2536 21.2628 30.7357C18.4594 30.1783 15.6908 29.629 12.8711 29.0681C12.9662 28.5871 13.0544 28.1433 13.1483 27.667C15.9529 28.2244 18.7111 28.7737 21.5377 29.3369Z" fill="#1243C1"/>
<path d="M13.1384 37.7158C13.041 37.2083 12.9586 36.7876 12.8682 36.3159C15.6681 35.7585 18.4332 35.208 21.2564 34.646C21.3492 35.12 21.4373 35.5627 21.5324 36.0471C18.7209 36.6068 15.9546 37.1561 13.1384 37.7158Z" fill="#1243C1"/>
<path d="M23.0391 25.7454C20.6543 24.1497 18.301 22.5747 15.9209 20.9813C16.1854 20.5826 16.4301 20.213 16.7085 19.7935C19.0874 21.3834 21.4489 22.963 23.8313 24.5564C23.5552 24.9713 23.3012 25.3526 23.0391 25.7454Z" fill="#1243C1"/>
<path d="M17.9492 26.5165C18.1383 26.0611 18.3088 25.6509 18.4967 25.1978C19.8201 25.7471 21.1168 26.2848 22.4449 26.8352C22.264 27.2756 22.0969 27.6858 21.9056 28.1529C20.5856 27.6082 19.2912 27.0716 17.9492 26.5165Z" fill="#1243C1"/>
<path d="M25.5578 22.5972C25.2412 22.9205 24.9303 23.238 24.645 23.5289C23.6429 22.5265 22.6477 21.5299 21.6514 20.5332C21.9367 20.2447 22.2591 19.9179 22.5688 19.605C23.5675 20.6039 24.5569 21.5948 25.5578 22.5972Z" fill="#1243C1"/>
<path d="M16.8838 33.3697C16.8838 32.9015 16.8838 32.4716 16.8838 32.0127C18.2977 32.0127 19.6895 32.0127 21.1139 32.0127C21.1139 32.4542 21.1139 32.8946 21.1139 33.3697C19.7185 33.3697 18.3162 33.3697 16.8838 33.3697Z" fill="#1243C1"/>
<path d="M14.5379 23.5576C15.438 23.9319 16.2859 24.2842 17.172 24.6516C16.9888 25.0943 16.8159 25.5126 16.628 25.9669C15.7442 25.6007 14.8987 25.2507 13.9951 24.8776C14.1737 24.4407 14.3466 24.0235 14.5379 23.5576Z" fill="#1243C1"/>
<path d="M18.6064 17.4945C18.9022 17.2048 19.2212 16.8931 19.5065 16.6138C20.1584 17.2651 20.816 17.9221 21.4853 18.5896C21.2034 18.8643 20.8798 19.1784 20.5782 19.4715C19.9357 18.8284 19.2861 18.1759 18.6064 17.4945Z" fill="#1243C1"/>
<path d="M12.6016 31.9932C13.5689 31.9932 14.4632 31.9932 15.3922 31.9932C15.3922 32.4556 15.3922 32.9075 15.3922 33.3815C14.4666 33.3815 13.548 33.3815 12.6016 33.3815C12.6016 32.9203 12.6016 32.4695 12.6016 31.9932Z" fill="#1243C1"/>
<path d="M31.1455 51.2421C31.1455 50.7542 31.1455 50.3231 31.1455 49.8538C31.2963 49.8469 31.4355 49.8341 31.5747 49.8341C32.6881 49.8329 33.8063 49.7785 34.9163 49.8457C36.5702 49.9465 38.0758 49.0635 38.2985 46.9902C38.738 46.9902 39.18 46.9902 39.6706 46.9902C39.6729 48.2522 39.1985 49.2802 38.3054 50.118C37.5619 50.8157 36.6723 51.2213 35.647 51.2363C34.16 51.2584 32.6719 51.2421 31.1455 51.2421Z" fill="#1243C1"/>
<path d="M26.8555 40.5677C27.3368 40.5677 27.7799 40.5678 28.2218 40.5689C28.5176 41.5493 28.985 41.9908 29.718 41.9781C30.4488 41.9665 30.8942 41.5354 31.176 40.5654C31.6168 40.5654 32.0598 40.5654 32.54 40.5654C32.5203 41.6107 32.083 42.4057 31.2386 42.9434C30.2667 43.5623 29.2413 43.5831 28.2462 42.9921C27.3484 42.4602 26.8961 41.6467 26.8555 40.5677Z" fill="#1243C1"/>
<path d="M36.8467 40.5654C37.3315 40.5654 37.7734 40.5654 38.2142 40.5654C38.4972 41.5458 38.975 41.9955 39.715 41.9781C40.4446 41.9607 40.9376 41.4844 41.1475 40.5701C41.5917 40.5701 42.0441 40.5701 42.5301 40.5701C42.4999 41.6501 42.0394 42.459 41.1452 42.9921C40.1512 43.5843 39.1258 43.5634 38.1527 42.9434C37.3083 42.4046 36.8734 41.6096 36.8467 40.5654Z" fill="#1243C1"/>
</svg>
