<svg width="77" height="77" viewBox="0 0 77 77" fill="none" xmlns="http://www.w3.org/2000/svg">
                    <circle cx="38.5" cy="38.5" r="37" fill="white" stroke="#1243C1" stroke-width="3" />
                    <g clip-path="url(#clip0_12_6883)">
                      <path
                        d="M52.0556 15C52.4985 15.2705 52.9949 15.4821 53.3719 15.8265C53.8944 16.3023 53.9977 16.981 53.9977 17.676C53.994 23.768 53.9952 29.8588 53.9952 35.9508C53.9952 41.9014 53.989 47.8532 54.0014 53.8037C54.0039 54.947 53.6469 55.8423 52.5943 56.3933C52.4886 56.4484 52.4152 56.6663 52.4139 56.809C52.4002 57.9961 52.4089 59.1832 52.4052 60.3703C52.399 62.007 51.4149 62.9987 49.795 62.9987C40.9318 63 32.0698 63 23.2066 62.9987C20.7022 62.9987 19.0027 61.2882 19.0027 58.7587C18.999 45.638 19.0002 32.5185 19.0002 19.3978C19.0002 17.0374 20.0739 15.6461 22.3519 15.0488C22.3805 15.0413 22.4042 15.0163 22.4303 15C32.305 15 42.1809 15 52.0556 15ZM23.8063 55.0071C24.0103 55.0071 24.1646 55.0071 24.3189 55.0071C33.2903 55.0071 42.2618 55.0071 51.2332 55.0071C52.1738 55.0071 52.4052 54.7704 52.4052 53.805C52.4052 41.7937 52.4052 29.7812 52.4052 17.7699C52.4052 16.8358 52.1713 16.5978 51.2569 16.5978C42.2854 16.5978 33.314 16.5978 24.3425 16.5978C24.1746 16.5978 24.0054 16.5978 23.8075 16.5978C23.8063 29.403 23.8063 42.1719 23.8063 55.0071ZM50.7953 56.6074C50.5614 56.6074 50.3922 56.6074 50.223 56.6074C41.2503 56.6074 32.2788 56.6074 23.3061 56.6074C23.1195 56.6074 22.9329 56.6062 22.7475 56.6199C21.4549 56.7151 20.4434 57.9723 20.6163 59.2621C20.793 60.5832 21.7684 61.4009 23.178 61.4009C32.0101 61.4022 40.8422 61.4022 49.6756 61.4009C49.8 61.4009 49.9257 61.4084 50.0476 61.3947C50.4693 61.3446 50.7766 61.1104 50.7854 60.6846C50.8127 59.3473 50.7953 58.0074 50.7953 56.6074ZM20.5902 55.7371C21.007 55.5443 21.3417 55.3252 21.7074 55.2363C22.1118 55.1386 22.1889 54.9382 22.1889 54.5575C22.1802 42.1393 22.1815 29.7211 22.1815 17.3041C22.1815 17.1413 22.1815 16.9785 22.1815 16.7694C22.0521 16.8157 21.9936 16.8295 21.9413 16.857C20.9672 17.3692 20.5865 18.2044 20.5865 19.2801C20.5914 31.2613 20.5902 43.2413 20.5902 55.2225C20.5902 55.3765 20.5902 55.5305 20.5902 55.7371Z"
                        fill="#1243C1" />
                      <path
                        d="M44.4388 25.2607C45.102 25.0453 45.7141 24.746 46.3548 24.6584C48.588 24.3528 50.5674 25.9594 50.7677 28.2097C50.8337 28.9535 50.8374 29.7111 50.7802 30.4561C50.6122 32.6463 48.8717 34.2491 46.7666 34.204C44.6466 34.1577 42.9123 32.5048 42.8712 30.3272C42.8103 27.1102 42.8476 23.8908 42.8551 20.6726C42.8563 20.1541 43.1984 19.806 43.6426 19.7998C44.1067 19.7935 44.4339 20.1491 44.4363 20.7026C44.4438 22.2316 44.4388 23.7618 44.4388 25.2607ZM49.2101 29.3943C49.2026 29.3943 49.1964 29.3943 49.1889 29.3943C49.1889 29.0349 49.22 28.673 49.1827 28.3186C49.0608 27.129 48.0891 26.2449 46.8935 26.2049C45.7153 26.1648 44.6516 27.0075 44.5035 28.1934C44.414 28.9159 44.4077 29.661 44.465 30.3885C44.567 31.6883 45.6195 32.625 46.8587 32.6049C48.1277 32.5849 49.1168 31.6119 49.2064 30.2846C49.2275 29.9891 49.2101 29.691 49.2101 29.3943Z"
                        fill="#1243C1" />
                      <path
                        d="M31.6981 25.3783C31.8972 24.7898 32.1933 24.5531 32.6287 24.6157C33.0853 24.6808 33.3217 25.0139 33.3229 25.6175C33.3254 27.3518 33.3217 29.0849 33.3242 30.8192C33.3254 31.8886 33.8417 32.4759 34.8868 32.6074C35.4442 32.6775 35.7353 33.0006 35.6831 33.4927C35.6345 33.9623 35.2501 34.2378 34.7039 34.1952C33.8318 34.1276 33.3229 33.8533 32.2866 32.8841C31.606 33.5703 30.8048 34.0249 29.8294 34.1639C27.7704 34.4581 25.6678 32.9192 25.4389 30.8317C25.3306 29.8462 25.2983 28.8144 25.4637 27.8439C25.929 25.1028 29.0182 23.7542 31.3871 25.1867C31.4791 25.2418 31.5712 25.2994 31.6981 25.3783ZM26.9704 29.3867C26.9704 29.6834 26.9592 29.9802 26.9729 30.277C27.0289 31.5467 27.9582 32.5059 29.2148 32.6011C30.3955 32.69 31.5164 31.8222 31.6745 30.5813C31.7715 29.8149 31.774 29.016 31.6807 28.2484C31.5264 26.9762 30.4241 26.1234 29.1961 26.2123C27.9371 26.3037 27.0239 27.2579 26.9716 28.5439C26.9592 28.8232 26.9691 29.1049 26.9704 29.3867Z"
                        fill="#1243C1" />
                      <path
                        d="M38.5022 38.1973C34.7785 38.1973 31.0536 38.1973 27.3299 38.1973C26.5386 38.1973 26.1517 37.9256 26.1654 37.3821C26.1778 36.8562 26.5585 36.5945 27.3175 36.5945C34.7661 36.5945 42.2135 36.5945 49.6621 36.5957C49.8164 36.5957 49.9744 36.5932 50.1262 36.6208C50.5529 36.6959 50.8229 37.0328 50.8017 37.441C50.7818 37.8317 50.5019 38.131 50.0926 38.1823C49.9246 38.2036 49.7517 38.1986 49.5813 38.1986C45.8887 38.1973 42.1948 38.1973 38.5022 38.1973Z"
                        fill="#1243C1" />
                      <path
                        d="M38.8869 44.7527C39.6645 43.5781 40.4197 42.4374 41.1749 41.2979C41.2694 41.1551 41.3602 41.0073 41.4747 40.8821C41.7696 40.5565 42.1826 40.5152 42.5223 40.7607C42.8358 40.9873 42.9378 41.3905 42.7649 41.7599C42.7051 41.8864 42.6255 42.0029 42.5484 42.1193C40.5453 45.1422 38.541 48.165 36.5367 51.1879C36.4596 51.3043 36.3862 51.427 36.2929 51.5285C36.0142 51.8328 35.5576 51.8766 35.2378 51.6399C34.9218 51.407 34.8148 51.0013 35.0102 50.6394C35.1731 50.3389 35.3747 50.0609 35.5638 49.7754C36.2854 48.6847 36.9995 47.5902 37.7361 46.5096C37.8941 46.2779 37.8879 46.1214 37.7348 45.8935C36.8639 44.6037 35.998 43.3102 35.1595 41.9991C35.0139 41.7724 34.9044 41.4193 34.9753 41.1852C35.0462 40.9547 35.3598 40.663 35.58 40.6505C35.8475 40.6354 36.2307 40.8132 36.3899 41.0336C37.1426 42.083 37.8344 43.1749 38.5485 44.2518C38.648 44.4034 38.7538 44.5561 38.8869 44.7527Z"
                        fill="#1243C1" />
                      <path
                        d="M38.0876 30.2182C36.8322 30.1405 36.5038 29.964 36.5 29.4042C36.4963 28.867 36.7713 28.7155 38.0614 28.554C38.1448 27.9354 37.8761 27.005 38.9124 27.0288C39.8791 27.0513 39.6203 27.9316 39.6937 28.5965C39.9463 28.5965 40.1889 28.5865 40.4315 28.599C40.9416 28.6241 41.2651 28.9522 41.2551 29.418C41.2452 29.8688 40.9316 30.1693 40.4377 30.1906C40.2076 30.2006 39.9761 30.1919 39.6701 30.1919C39.6701 30.4749 39.68 30.7328 39.6676 30.9908C39.644 31.4766 39.3242 31.791 38.8751 31.7884C38.4508 31.7859 38.1249 31.4804 38.0913 31.0258C38.0714 30.7666 38.0876 30.5049 38.0876 30.2182Z"
                        fill="#1243C1" />
                      <path
                        d="M32.5252 58.2065C34.5581 58.2065 36.591 58.2052 38.6227 58.2065C39.3157 58.2065 39.6615 58.4682 39.6678 58.9891C39.674 59.5088 39.3082 59.803 38.6426 59.803C34.5618 59.8043 30.4811 59.8043 26.4003 59.803C26.2921 59.803 26.1813 59.8081 26.0756 59.7918C25.6327 59.7204 25.3552 59.3748 25.3839 58.939C25.4112 58.5245 25.7048 58.2202 26.1478 58.214C27.2028 58.199 28.2578 58.2065 29.3128 58.2065C30.384 58.2065 31.4552 58.2065 32.5252 58.2065Z"
                        fill="#1243C1" />
                      <path
                        d="M44.0425 58.2065C44.677 58.2065 45.3127 58.2003 45.9472 58.209C46.4723 58.2153 46.8119 58.5158 46.8306 58.9691C46.8492 59.4312 46.4884 59.7956 45.9622 59.8006C44.6919 59.8119 43.4229 59.8106 42.1526 59.8006C41.6189 59.7968 41.2568 59.4462 41.2668 58.9841C41.2768 58.5196 41.6313 58.214 42.1837 58.2078C42.8033 58.2015 43.4229 58.2065 44.0425 58.2065Z"
                        fill="#1243C1" />
                    </g>
                    <defs>
                      <clipPath id="clip0_12_6883">
                        <rect width="35" height="48" fill="white" transform="translate(19 15)" />
                      </clipPath>
                    </defs>
                  </svg>