<svg width="68" height="68" viewBox="0 0 68 68" fill="none" xmlns="http://www.w3.org/2000/svg">
<circle cx="33.6043" cy="33.6043" r="32.1043" fill="white" stroke="#1243C1" stroke-width="3"/>
<path d="M12.4111 15.0635C12.4111 14.3864 12.4111 13.7102 12.4111 13.0331C12.7036 12.2195 13.2858 11.923 14.1412 11.9238C25.1058 11.9378 36.0695 11.9335 47.0341 11.9335C47.175 11.9335 47.3169 11.9273 47.4569 11.9378C47.907 11.9702 48.2651 12.1758 48.5234 12.5414C48.8867 13.0576 48.9147 15.0425 48.4997 15.5131C48.2283 15.821 47.8229 16.0109 47.4053 16.3039C47.4053 16.6084 47.4053 17.0501 47.4053 17.5181C47.5874 17.5181 47.7406 17.5181 47.8938 17.5181C49.5732 17.5181 51.2525 17.5103 52.9318 17.5208C54.3861 17.5304 55.5462 18.5285 55.7327 19.9527C55.7966 20.4382 55.7625 20.9377 55.7625 21.4302C55.7633 23.3565 54.6146 24.5095 52.6875 24.513C51.0791 24.5165 49.4698 24.513 47.8615 24.5148C47.7109 24.5148 47.5611 24.527 47.3983 24.534C47.3983 25.9276 47.3983 27.2879 47.3983 28.6902C47.5716 28.6902 47.7222 28.6902 47.8737 28.6902C49.736 28.6902 51.5992 28.6884 53.4615 28.691C54.8895 28.6928 55.7616 29.558 55.7625 30.976C55.7642 36.9106 55.7642 42.8452 55.7625 48.779C55.7625 50.1655 54.9175 51.0386 53.5324 51.0421C49.8918 51.0526 46.2513 51.0499 42.6108 51.0429C41.5531 51.0412 40.7808 50.5181 40.5007 49.6092C40.407 49.3056 40.379 48.9723 40.379 48.6521C40.3711 44.9727 40.3737 41.2942 40.3737 37.6148C40.3737 37.4495 40.3737 37.2842 40.3737 37.1083C33.8561 37.1083 27.3849 37.1083 20.9136 37.1083C20.8926 37.1433 20.8707 37.1783 20.8497 37.2133C20.9338 37.2658 21.0301 37.306 21.101 37.3734C25.7607 41.7649 30.4195 46.1572 35.0757 50.5522C36.7261 52.1102 38.3687 53.6761 40.0147 55.2376C30.8205 55.2376 21.6263 55.2376 12.4111 55.2376C12.4111 46.5535 12.4111 37.8694 12.4111 29.1862C12.8507 29.5912 13.2902 29.9962 13.7866 30.4529C13.7971 30.2368 13.8103 30.1003 13.8103 29.9647C13.8111 25.5059 13.8111 21.0471 13.8111 16.5882C13.8111 16.5043 13.8339 16.4098 13.8033 16.3372C13.7665 16.2497 13.6938 16.1228 13.622 16.1124C12.989 16.0196 12.6554 15.5962 12.4111 15.0635ZM45.944 24.5156C45.7549 24.5156 45.5894 24.5156 45.4248 24.5156C41.7142 24.5156 38.0036 24.52 34.293 24.506C34.0452 24.5051 33.765 24.4159 33.5566 24.2812C32.372 23.5175 31.2049 22.7276 30.0317 21.9455C29.5799 21.6446 29.129 21.341 28.6492 21.0191C28.8006 20.9115 28.9118 20.8275 29.0283 20.7505C30.5412 19.7419 32.0507 18.728 33.5733 17.7351C33.7694 17.6074 34.0373 17.5295 34.2729 17.5286C37.9975 17.5164 41.7221 17.5199 45.4476 17.5199C45.6113 17.5199 45.7759 17.5199 45.9422 17.5199C45.9422 17.0326 45.9422 16.6022 45.9422 16.1508C35.6939 16.1508 25.4726 16.1508 15.2322 16.1508C15.2225 16.2681 15.2085 16.3643 15.2085 16.4596C15.2077 21.4775 15.205 26.4944 15.2182 31.5123C15.219 31.6916 15.3355 31.9138 15.4686 32.0424C16.6462 33.177 17.8448 34.2906 19.0251 35.4235C19.2352 35.6255 19.4471 35.6982 19.7351 35.6982C26.4506 35.6912 33.167 35.692 39.8825 35.692C40.0331 35.692 40.1837 35.692 40.3396 35.692C40.3396 34.7324 40.3396 33.8261 40.3396 32.8743C38.24 32.8743 36.1737 32.8743 34.1249 32.8743C34.1249 32.3844 34.1249 31.9418 34.1249 31.4711C36.2166 31.4711 38.2724 31.4711 40.3439 31.4711C40.3772 31.004 40.4087 30.5666 40.4438 30.0907C38.3205 30.0907 36.2236 30.0907 34.1161 30.0907C34.1161 29.6113 34.1161 29.1696 34.1161 28.684C38.0719 28.684 42.0005 28.684 45.9457 28.684C45.944 27.2817 45.944 25.9232 45.944 24.5156ZM41.7851 39.8456C41.7851 42.8041 41.7842 45.7636 41.786 48.7221C41.786 49.4307 42.011 49.6538 42.722 49.6538C46.2907 49.6546 49.8595 49.6546 53.4282 49.6538C54.1348 49.6538 54.3633 49.4289 54.3642 48.716C54.3659 42.826 54.3659 36.936 54.3642 31.0469C54.3642 30.3024 54.1567 30.1038 53.4011 30.1038C49.8463 30.103 46.2916 30.103 42.7377 30.1038C41.9856 30.1038 41.7869 30.3033 41.7869 31.053C41.7842 33.9844 41.7851 36.915 41.7851 39.8456ZM13.84 32.4413C13.84 34.0325 13.84 35.5284 13.84 37.0812C14.3032 37.0812 14.7454 37.0812 15.1709 37.0812C15.1709 37.5807 15.1709 38.0234 15.1709 38.5045C14.7033 38.5045 14.2717 38.5045 13.8444 38.5045C13.8444 38.9743 13.8444 39.4029 13.8444 39.8753C14.3067 39.8753 14.7384 39.8753 15.1805 39.8753C15.1805 40.3617 15.1805 40.8035 15.1805 41.2846C14.7226 41.2846 14.291 41.2846 13.8365 41.2846C13.8365 41.7526 13.8365 42.1804 13.8365 42.6659C14.3015 42.6659 14.7436 42.6659 15.1735 42.6659C15.1735 43.1672 15.1735 43.6098 15.1735 44.0892C14.7068 44.0892 14.2752 44.0892 13.8435 44.0892C13.8435 44.5572 13.8435 44.9867 13.8435 45.4609C14.3041 45.4609 14.7357 45.4609 15.1831 45.4609C15.1831 45.9481 15.1831 46.3899 15.1831 46.8842C14.7173 46.8842 14.2761 46.8842 13.8514 46.8842C13.8514 47.3662 13.8514 47.7948 13.8514 48.2646C14.3207 48.2646 14.7524 48.2646 15.1761 48.2646C15.1761 48.7519 15.1761 49.1945 15.1761 49.673C14.7112 49.673 14.2787 49.673 13.8409 49.673C13.8409 50.1402 13.8409 50.5697 13.8409 51.0604C14.3076 51.0604 14.748 51.0604 15.1849 51.0604C15.1849 51.5529 15.1849 51.9842 15.1849 52.4654C14.7208 52.4654 14.2778 52.4654 13.8479 52.4654C13.8479 52.9465 13.8479 53.3751 13.8479 53.7968C21.3873 53.7968 28.8908 53.7968 36.4775 53.7968C28.9118 46.6611 21.4145 39.5875 13.84 32.4413ZM13.8322 14.6917C25.0279 14.6917 36.1929 14.6917 47.3466 14.6917C47.3466 14.2272 47.3466 13.7968 47.3466 13.3664C36.1623 13.3664 25.0077 13.3664 13.8322 13.3664C13.8322 13.8169 13.8322 14.2359 13.8322 14.6917ZM34.7991 20.2851C39.9429 20.2851 45.0404 20.2851 50.1493 20.2851C50.1493 19.8294 50.1493 19.4007 50.1493 18.9651C45.0203 18.9651 39.9149 18.9651 34.7991 18.9651C34.7991 19.4217 34.7991 19.839 34.7991 20.2851ZM34.8034 23.074C39.9342 23.074 45.0413 23.074 50.1449 23.074C50.1449 22.6112 50.1449 22.1817 50.1449 21.746C45.0203 21.746 39.9228 21.746 34.8034 21.746C34.8034 22.2018 34.8034 22.6305 34.8034 23.074ZM51.5931 23.0976C52.1254 23.0976 52.6315 23.1247 53.1349 23.0906C53.7662 23.0477 54.2942 22.5237 54.3379 21.8781C54.3765 21.3051 54.3747 20.7252 54.3379 20.1522C54.3012 19.5783 53.9684 19.1321 53.4195 19.0193C52.8311 18.8986 52.2103 18.9353 51.5931 18.9029C51.5931 20.3586 51.5931 21.7163 51.5931 23.0976ZM33.3666 22.4861C33.3666 21.474 33.3666 20.5441 33.3666 19.5407C32.6067 20.0472 31.9001 20.5187 31.1585 21.013C31.9088 21.5142 32.6084 21.9805 33.3666 22.4861Z" fill="#1243C1"/>
<path d="M21.9763 33.1983C21.3275 32.3909 20.7392 31.6587 20.1517 30.9256C19.6228 30.266 19.1063 29.5968 18.5582 28.9538C18.4417 28.8173 18.2184 28.7176 18.0372 28.7036C17.5784 28.6686 17.1152 28.6922 16.6328 28.6922C16.6328 28.2155 16.6328 27.7868 16.6328 27.3101C17.4129 27.3101 18.1703 27.3004 18.9268 27.3214C19.0353 27.324 19.1597 27.4588 19.2428 27.5602C19.819 28.2653 20.3854 28.9783 21.022 29.7717C21.4527 26.5542 21.8704 23.4426 22.288 20.3257C23.8964 20.3257 25.4584 20.3257 27.0545 20.3257C27.0545 20.7806 27.0545 21.2206 27.0545 21.707C25.883 21.707 24.7186 21.707 23.5129 21.707C23.0016 25.5316 22.4955 29.3168 21.9763 33.1983Z" fill="#1243C1"/>
<path d="M25.5465 32.0277C25.1673 31.6411 24.8618 31.3305 24.5308 30.9928C25.5184 30.0139 26.5131 29.0289 27.5147 28.0369C26.4789 27.0055 25.493 26.0231 24.4932 25.0267C24.8556 24.6873 25.1822 24.3811 25.5193 24.0653C26.4789 25.025 27.4622 26.0091 28.4384 26.9854C29.4514 25.9715 30.4338 24.9882 31.3978 24.0225C31.762 24.3969 32.0702 24.7144 32.3994 25.053C31.467 25.9803 30.4758 26.9661 29.4689 27.9669C30.5056 28.9974 31.4924 29.9781 32.4896 30.9692C32.1289 31.3095 31.804 31.6157 31.46 31.9402C30.5039 30.9832 29.5197 29.9982 28.5435 29.0202C27.5375 30.0306 26.5568 31.0147 25.5465 32.0277Z" fill="#1243C1"/>
<path d="M44.5587 25.9287C44.5587 26.3967 44.5587 26.8271 44.5587 27.2829C41.0757 27.2829 37.6164 27.2829 34.1221 27.2829C34.1221 26.8411 34.1221 26.4002 34.1221 25.9287C37.5849 25.9287 41.0556 25.9287 44.5587 25.9287Z" fill="#1243C1"/>
<path d="M52.9462 31.5146C52.9462 33.3788 52.9462 35.2045 52.9462 37.046C49.6874 37.046 46.4523 37.046 43.1943 37.046C43.1943 35.1949 43.1943 33.3701 43.1943 31.5146C46.4479 31.5146 49.6822 31.5146 52.9462 31.5146ZM51.5471 32.9266C49.212 32.9266 46.9111 32.9266 44.604 32.9266C44.604 33.8521 44.604 34.747 44.604 35.6568C46.9277 35.6568 49.2286 35.6568 51.5471 35.6568C51.5471 34.7391 51.5471 33.8547 51.5471 32.9266Z" fill="#1243C1"/>
<path d="M44.5872 39.8797C44.5872 39.3732 44.5872 38.9542 44.5872 38.5098C45.0451 38.5098 45.4741 38.5098 45.9539 38.5098C45.9539 38.9402 45.9539 39.3688 45.9539 39.8526C46.4416 39.8526 46.8838 39.8526 47.3505 39.8526C47.3505 40.3503 47.3505 40.7912 47.3505 41.268C46.9004 41.268 46.4679 41.268 45.9898 41.268C45.9898 41.7316 45.9898 42.1612 45.9898 42.6257C45.5048 42.6257 45.0653 42.6257 44.5837 42.6257C44.5837 42.1865 44.5837 41.7561 44.5837 41.2907C44.1118 41.2907 43.6793 41.2907 43.21 41.2907C43.21 40.8157 43.21 40.3757 43.21 39.8788C43.6495 39.8797 44.0916 39.8797 44.5872 39.8797Z" fill="#1243C1"/>
<path d="M49.9867 46.2062C49.5761 45.8554 49.2767 45.6 48.9492 45.3192C49.3467 44.9798 49.6847 44.6911 50.0796 44.3543C50.2555 44.5791 50.5051 44.8975 50.7844 45.2527C51.1451 44.8459 51.4121 44.545 51.6766 44.2476C52.0688 44.6412 52.3814 44.9544 52.722 45.2956C52.4374 45.5536 52.138 45.8248 51.7527 46.1747C52.1406 46.4853 52.4584 46.7407 52.7911 47.0084C52.4006 47.3767 52.0767 47.682 51.7081 48.0302C51.4682 47.7467 51.2143 47.4467 50.8728 47.0434C50.5664 47.4546 50.316 47.7896 50.0568 48.1369C49.6435 47.7118 49.3406 47.3986 48.9667 47.0137C49.2784 46.7661 49.605 46.5072 49.9867 46.2062Z" fill="#1243C1"/>
<path d="M52.9489 39.9019C52.9489 40.3672 52.9489 40.7985 52.9489 41.2534C51.5673 41.2534 50.2067 41.2534 48.8066 41.2534C48.8066 40.816 48.8066 40.3769 48.8066 39.9019C50.176 39.9019 51.5454 39.9019 52.9489 39.9019Z" fill="#1243C1"/>
<path d="M47.3607 44.0981C47.3607 44.5565 47.3607 44.9747 47.3607 45.4243C45.9721 45.4243 44.6001 45.4243 43.1992 45.4243C43.1992 44.9843 43.1992 44.5557 43.1992 44.0981C44.5835 44.0981 45.9555 44.0981 47.3607 44.0981Z" fill="#1243C1"/>
<path d="M47.3607 46.8916C47.3607 47.3491 47.3607 47.7681 47.3607 48.2187C45.9721 48.2187 44.6001 48.2187 43.1992 48.2187C43.1992 47.7786 43.1992 47.3491 43.1992 46.8916C44.5817 46.8916 45.9546 46.8916 47.3607 46.8916Z" fill="#1243C1"/>
<path d="M16.6406 38.9272C20.9335 42.9767 25.1589 46.9631 29.4526 51.0152C25.123 51.0152 20.8914 51.0152 16.6406 51.0152C16.6406 47.006 16.6406 43.0178 16.6406 38.9272ZM18.0363 42.1657C18.0363 44.7219 18.0363 47.1783 18.0363 49.626C20.6682 49.626 23.2668 49.626 25.9434 49.626C23.2887 47.1197 20.6892 44.6685 18.0363 42.1657Z" fill="#1243C1"/>
</svg>
