<svg width="68" height="68" viewBox="0 0 68 68" fill="none" xmlns="http://www.w3.org/2000/svg">
<circle cx="33.6043" cy="33.6043" r="32.1043" fill="white" stroke="#1243C1" stroke-width="3"/>
<path d="M37.8604 47.3982C38.8617 48.5439 39.7974 49.6143 40.732 50.6836C40.9624 50.9472 41.2316 51.186 41.4071 51.4819C41.5201 51.6734 41.589 51.9918 41.5051 52.1725C41.4211 52.3543 41.1314 52.5179 40.915 52.5448C40.452 52.6007 39.9772 52.563 39.5067 52.563C34.9662 52.563 30.4256 52.563 25.8851 52.563C25.7775 52.563 25.6698 52.5609 25.5632 52.563C25.252 52.5695 25.0151 52.4533 24.8859 52.1575C24.761 51.8713 24.8655 51.6368 25.055 51.4206C26.038 50.2985 27.0189 49.1754 28.0009 48.0523C28.1678 47.8608 28.3336 47.6693 28.5683 47.3993C28.3487 47.3993 28.2108 47.3993 28.073 47.3993C24.2851 47.3993 20.4962 47.3993 16.7083 47.3993C14.5602 47.3993 13.2197 46.0535 13.2197 43.8987C13.2197 35.4678 13.2197 27.0368 13.2197 18.607C13.2197 16.4759 14.5645 15.1225 16.6835 15.1225C27.6983 15.1215 38.7142 15.1225 49.729 15.1225C51.8555 15.1225 53.2046 16.4694 53.2057 18.5941C53.2068 27.0379 53.2068 35.4828 53.2057 43.9266C53.2057 46.0502 51.8545 47.3993 49.7301 47.3993C45.9551 47.4004 42.1802 47.3993 38.4063 47.3993C38.2598 47.3982 38.1134 47.3982 37.8604 47.3982ZM33.195 46.1062C38.6765 46.1062 44.157 46.1062 49.6386 46.1062C51.1826 46.1062 51.9169 45.3768 51.9169 43.8438C51.9169 35.4527 51.9169 27.0616 51.9169 18.6705C51.9169 17.1504 51.1837 16.4113 49.6763 16.4113C38.7002 16.4113 27.7242 16.4113 16.7481 16.4113C15.2601 16.4113 14.5096 17.1558 14.5096 18.6328C14.5096 27.0508 14.5096 35.4688 14.5096 43.8868C14.5096 45.3456 15.2633 46.1062 16.7094 46.1062C22.206 46.1073 27.7005 46.1062 33.195 46.1062ZM26.9274 51.2366C31.1341 51.2366 35.287 51.2366 39.4464 51.2366C39.4367 51.1989 39.4377 51.1688 39.4238 51.1527C38.374 49.9489 37.3263 48.7429 36.2658 47.5477C36.185 47.4563 36.0127 47.4047 35.8835 47.4047C34.0994 47.395 32.3142 47.395 30.5301 47.4047C30.402 47.4057 30.234 47.4649 30.1522 47.5574C29.083 48.7623 28.0267 49.9779 26.9274 51.2366Z" fill="#1243C1"/>
<path d="M33.2156 42.2337C28.1507 42.2337 23.0859 42.2337 18.021 42.2337C16.5599 42.2337 15.8008 41.4817 15.8008 40.0337C15.8008 33.3241 15.8008 26.6133 15.8008 19.9037C15.8008 18.4546 16.5588 17.7026 18.0188 17.7026C28.1486 17.7026 38.2772 17.7026 48.407 17.7026C49.8659 17.7026 50.6272 18.4557 50.6272 19.9015C50.6272 26.6112 50.6272 33.3219 50.6272 40.0316C50.6272 41.4796 49.867 42.2326 48.4091 42.2326C43.3443 42.2337 38.2805 42.2337 33.2156 42.2337ZM35.6608 40.9428C35.8708 40.9428 36 40.9428 36.1292 40.9428C40.2261 40.9428 44.323 40.9428 48.4199 40.9428C49.151 40.9428 49.3373 40.7524 49.3373 40.0047C49.3373 33.3219 49.3373 26.6392 49.3373 19.9575C49.3373 19.1657 49.1639 18.9947 48.365 18.9947C38.2632 18.9947 28.1615 18.9947 18.0597 18.9947C17.2619 18.9947 17.0907 19.1657 17.0907 19.9607C17.0907 26.6295 17.0907 33.2993 17.0907 39.9681C17.0907 40.1026 17.0799 40.2392 17.0993 40.3705C17.1467 40.6846 17.3351 40.889 17.6484 40.9288C17.881 40.9589 18.12 40.9353 18.3795 40.9353C18.3795 40.7448 18.3795 40.5985 18.3795 40.4533C18.3795 39.1226 18.3752 37.7907 18.3817 36.46C18.386 35.5112 18.7488 34.7183 19.4239 34.0513C19.5553 33.9211 19.6576 33.6952 19.6587 33.5123C19.6737 30.9445 19.6565 28.3766 19.6737 25.8076C19.691 23.2548 21.4934 20.9773 23.9849 20.4631C24.8797 20.2781 25.825 20.2985 26.7477 20.2931C30.1362 20.277 32.5652 22.7136 32.5674 26.1013C32.5685 28.5756 32.5653 31.0488 32.5739 33.5231C32.5749 33.678 32.6255 33.8824 32.73 33.9792C33.5278 34.7065 33.8724 35.6047 33.8605 36.6741C33.8444 38.0844 33.8562 39.4948 33.8562 40.9062C33.8907 40.9342 33.9251 40.9632 33.9596 40.9912C34.0813 40.8761 34.2352 40.7814 34.3203 40.6437C35.8385 38.1877 37.3491 35.7263 38.8619 33.2671C38.9437 33.1337 39.032 33.0046 39.1235 32.8637C39.5036 33.1003 39.8503 33.3166 40.2067 33.5392C38.6874 36.0157 37.194 38.447 35.6608 40.9428ZM32.5652 40.9277C32.5652 39.3528 32.5835 37.8209 32.5577 36.2889C32.5437 35.4757 31.9472 34.7527 31.1505 34.5741C30.7381 34.4816 30.2988 34.4924 29.8713 34.4967C29.7023 34.4988 29.5041 34.572 29.3696 34.6774C27.621 36.0533 25.0562 36.1889 23.2366 34.9152C22.7467 34.572 22.2805 34.4655 21.7163 34.4795C20.4866 34.5107 19.6759 35.3035 19.6716 36.5374C19.6673 37.8553 19.6705 39.1731 19.6705 40.491C19.6705 40.633 19.6705 40.776 19.6705 40.9105C20.1324 40.9105 20.5394 40.9105 20.9755 40.9105C20.9755 39.6196 20.9755 38.3609 20.9755 37.0969C21.4137 37.0969 21.8207 37.0969 22.2719 37.0969C22.2719 38.3932 22.2719 39.6615 22.2719 40.9191C24.8635 40.9191 27.411 40.9191 30.0027 40.9191C30.0027 39.6271 30.0027 38.3587 30.0027 37.0882C30.4452 37.0882 30.8425 37.0882 31.284 37.0882C31.284 38.376 31.284 39.6443 31.284 40.9277C31.7254 40.9277 32.1238 40.9277 32.5652 40.9277ZM31.2581 33.1939C31.2614 33.1767 31.2775 33.1251 31.2775 33.0734C31.2764 30.6002 31.3066 28.127 31.2614 25.6538C31.228 23.8217 29.8799 22.1499 28.084 21.7562C27.2323 21.569 26.3268 21.5884 25.446 21.5841C22.8221 21.5712 20.9658 23.4462 20.9615 26.0776C20.9582 28.3357 20.9604 30.5937 20.9604 32.8518C20.9604 32.9809 20.9604 33.1089 20.9604 33.195C21.5515 33.195 22.0877 33.2057 22.6229 33.1918C23.2355 33.1767 23.692 32.8916 24 32.358C24.1378 32.1192 24.113 31.9772 23.8665 31.8029C23.0072 31.194 22.4075 30.3625 22.3289 29.3082C22.2309 27.999 22.2632 26.6779 22.2729 25.3633C22.274 25.2019 22.4452 24.9954 22.5938 24.8878C23.1935 24.4586 23.8008 24.0336 24.4393 23.6657C24.632 23.5538 24.9981 23.528 25.1758 23.6388C26.457 24.4327 27.8342 24.8254 29.3394 24.8114C29.7378 24.8082 29.9714 25.0739 29.9854 25.4859C29.9973 25.8216 29.9897 26.1583 29.9887 26.4939C29.9844 27.3804 30.0339 28.2722 29.9585 29.1533C29.8519 30.4087 29.1887 31.3619 28.1367 32.031C28.295 32.7206 28.8398 33.1713 29.5558 33.1918C30.1179 33.2068 30.6789 33.1939 31.2581 33.1939ZM28.688 26.0916C27.3658 26.0002 26.1513 25.6602 25.0186 25.0309C24.7515 24.8824 23.5456 25.6731 23.5434 25.9969C23.537 26.9501 23.5111 27.9054 23.5542 28.8564C23.6134 30.1763 24.7429 31.2252 26.0748 31.2575C27.4336 31.2898 28.5814 30.3495 28.6751 29.0306C28.7429 28.071 28.688 27.1018 28.688 26.0916ZM26.7854 32.5162C26.3558 32.5162 25.8508 32.5162 25.432 32.5162C25.0412 33.0487 24.6751 33.5489 24.309 34.0481C25.1219 34.6591 27.1978 34.6376 27.9095 34.0524C27.5499 33.5597 27.1903 33.0691 26.7854 32.5162Z" fill="#1243C1"/>
<path d="M32.5869 44.7936C32.5869 44.3762 32.5869 43.9792 32.5869 43.5532C32.995 43.5532 33.402 43.5532 33.8338 43.5532C33.8338 43.9588 33.8338 44.3654 33.8338 44.7936C33.4268 44.7936 33.0305 44.7936 32.5869 44.7936Z" fill="#1243C1"/>
<path d="M36.4386 29.3207C36.177 29.3207 35.9638 29.3261 35.7517 29.3197C34.7137 29.2863 33.8761 28.4752 33.8653 27.4424C33.847 25.6824 33.847 23.9214 33.8653 22.1614C33.8761 21.1286 34.7181 20.2938 35.7549 20.2906C39.2187 20.2788 42.6825 20.2788 46.1474 20.2906C47.2026 20.2938 48.0338 21.1373 48.0424 22.198C48.0575 23.9311 48.0564 25.6652 48.0424 27.3994C48.0338 28.4805 47.1993 29.3111 46.1172 29.3197C44.5732 29.3326 43.0292 29.3164 41.4852 29.3326C41.2742 29.3347 41.0362 29.41 40.8586 29.5262C39.7668 30.2341 38.6868 30.9624 37.6069 31.6875C37.3506 31.8596 37.0954 31.9941 36.7864 31.8262C36.4839 31.6616 36.4311 31.3841 36.4354 31.07C36.444 30.5052 36.4386 29.9425 36.4386 29.3207ZM37.7285 30.0523C38.5371 29.5122 39.2887 29.0443 40.0015 28.5236C40.5022 28.1578 41.0158 28.0008 41.6413 28.018C43.0906 28.0578 44.5431 28.033 45.9934 28.0287C46.5027 28.0276 46.7536 27.792 46.7557 27.3026C46.7622 25.6351 46.7622 23.9676 46.7557 22.3002C46.7536 21.8236 46.5081 21.5783 46.0311 21.5772C42.6459 21.5729 39.2607 21.5729 35.8755 21.5772C35.3974 21.5783 35.153 21.8225 35.152 22.3002C35.1455 23.9676 35.1466 25.6351 35.152 27.3026C35.1541 27.7802 35.3974 28.019 35.8734 28.0298C36.2491 28.0384 36.626 28.0255 37.0018 28.033C37.4787 28.0427 37.7178 28.2794 37.7275 28.756C37.735 29.1572 37.7285 29.5606 37.7285 30.0523Z" fill="#1243C1"/>
<path d="M37.7072 25.4306C37.2883 25.4306 36.8921 25.4306 36.4668 25.4306C36.4668 25.0208 36.4668 24.6141 36.4668 24.1816C36.8727 24.1816 37.2797 24.1816 37.7072 24.1816C37.7072 24.5904 37.7072 24.9874 37.7072 25.4306Z" fill="#1243C1"/>
<path d="M40.2793 25.4319C39.8551 25.4319 39.4589 25.4319 39.04 25.4319C39.04 25.0177 39.04 24.6207 39.04 24.1904C39.4363 24.1904 39.8422 24.1904 40.2793 24.1904C40.2793 24.5842 40.2793 24.9908 40.2793 25.4319Z" fill="#1243C1"/>
<path d="M41.6152 25.4287C41.6152 25.007 41.6152 24.61 41.6152 24.1851C42.0276 24.1851 42.4335 24.1851 42.8642 24.1851C42.8642 24.5949 42.8642 25.0016 42.8642 25.4287C42.4551 25.4287 42.0578 25.4287 41.6152 25.4287Z" fill="#1243C1"/>
<path d="M44.209 24.1733C44.6268 24.1733 45.023 24.1733 45.444 24.1733C45.444 24.595 45.444 25.0017 45.444 25.4288C45.0348 25.4288 44.6375 25.4288 44.209 25.4288C44.209 25.0275 44.209 24.6209 44.209 24.1733Z" fill="#1243C1"/>
</svg>
