<svg width="68" height="68" viewBox="0 0 68 68" fill="none" xmlns="http://www.w3.org/2000/svg">
<circle cx="33.6043" cy="33.6043" r="32.1043" fill="white" stroke="#1243C1" stroke-width="3"/>
<path d="M53.7656 49.1209C53.7233 49.3321 53.6862 49.5432 53.6388 49.7533C53.0027 52.5756 49.813 53.8765 47.3965 52.2862C47.146 52.1214 46.9677 52.1131 46.7058 52.2398C44.4017 53.3533 42.1172 53.0752 39.8502 52.1111C38.7214 51.6311 37.6698 51.0213 36.743 50.2066C36.2997 49.8162 36.0843 49.3434 36.0853 48.7511C36.0915 46.207 36.0832 43.6638 36.0946 41.1197C36.0956 40.8446 36.2069 40.5717 36.2348 40.2936C36.2471 40.1689 36.2234 39.9949 36.144 39.9135C35.5523 39.3058 34.941 38.7176 34.3399 38.1182C33.7028 37.4826 33.7049 36.8574 34.3472 36.2136C35.2276 35.3309 36.109 34.4492 36.9935 33.5706C37.5987 32.9691 38.242 32.9691 38.8502 33.5675C39.4554 34.1629 40.0595 34.7572 40.6564 35.3608C40.7966 35.5029 40.9059 35.5513 41.1172 35.4782C41.3904 35.3845 41.6925 35.3381 41.9821 35.3361C43.5512 35.3227 45.1192 35.3299 46.6883 35.3299C46.8275 35.3299 46.9666 35.3299 47.1233 35.3299C47.3512 33.9301 47.347 32.5663 47.1275 31.1469C46.9842 31.1469 46.8491 31.1469 46.713 31.1469C45.08 31.1469 43.4471 31.1531 41.8141 31.1428C41.1182 31.1387 40.5718 30.8431 40.243 30.2117C39.9316 29.6153 39.9564 29.0241 40.3255 28.4596C40.4162 28.3216 40.5337 28.199 40.6502 28.0806C40.9739 27.7499 41.3018 27.4234 41.6306 27.0979C42.3976 26.3388 43.311 26.2584 44.0275 27.0516C44.5058 27.581 44.9502 27.6109 45.5285 27.4213C45.6357 27.3863 45.7501 27.3698 45.912 27.3338C44.513 24.5713 42.4378 22.5514 39.6533 21.201C39.5853 21.338 39.5275 21.4503 39.4749 21.5636C39.1079 22.3546 38.7657 23.1591 38.3677 23.9347C38.0781 24.5012 37.9049 24.9884 38.2853 25.6281C38.6347 26.2162 38.4533 26.8476 37.942 27.3441C37.5647 27.7118 37.1966 28.0898 36.8224 28.4596C36.4028 28.8747 35.9069 29.0014 35.3348 28.851C34.2173 28.5564 33.5998 27.5068 33.8946 26.3944C34.4956 24.1253 35.076 21.851 35.7142 19.5921C35.8554 19.0915 36.142 18.6002 36.4698 18.1913C36.9977 17.531 37.5946 16.9213 38.1987 16.3269C39.5688 14.9776 41.0657 13.8281 43.0368 13.4995C43.4481 13.4995 43.8594 13.4995 44.2718 13.4995C44.9801 13.6983 45.6873 13.8981 46.3966 14.0959C46.444 14.1093 46.4996 14.1144 46.546 14.1031C47.3068 13.9043 48.0656 13.7014 48.8254 13.5005C49.2883 13.5005 49.7511 13.5005 50.214 13.5005C50.2831 13.5263 50.3501 13.5613 50.4212 13.5757C51.5439 13.8075 52.4202 14.4028 53.0656 15.3463C53.48 15.953 53.6449 16.6462 53.7635 17.3549C53.7635 17.5867 53.7635 17.8174 53.7635 18.0491C53.5573 18.9185 53.3511 19.7868 53.148 20.6572C53.1336 20.7169 53.1326 20.7869 53.148 20.8457C53.3511 21.6357 53.5573 22.4257 53.7635 23.2147C53.7635 23.4722 53.7635 23.7287 53.7635 23.9862C53.7398 24.1088 53.7202 24.2324 53.6913 24.355C53.5047 25.1522 53.3346 25.9536 53.1202 26.7436C53.0058 27.1618 52.6532 27.3142 52.3181 27.1597C52.0078 27.0176 51.9388 26.7508 52.0377 26.3439C52.2295 25.5488 52.4522 24.7536 52.5491 23.945C52.615 23.395 52.4893 22.8233 52.4491 22.2413C51.5913 23.2642 50.8233 24.2437 49.9821 25.1563C49.5346 25.6425 49.2264 26.1544 49.0264 26.7817C48.5821 28.1753 48.8161 27.9281 47.4677 28.2186C47.4429 28.2237 47.4068 28.2165 47.3934 28.232C47.3254 28.3041 47.2099 28.3803 47.2068 28.4586C47.1903 28.955 47.1986 29.4526 47.1986 29.9861C48.0439 29.9861 48.8501 30.0005 49.6553 29.9737C49.8078 29.9686 49.9914 29.8337 50.0975 29.707C50.4089 29.3331 50.6914 28.9345 50.979 28.541C51.2171 28.2145 51.514 28.1228 51.8037 28.2989C52.1047 28.4823 52.1769 28.8263 51.9439 29.1683C51.6563 29.5926 51.3439 30.0005 51.0326 30.4074C50.6274 30.9348 50.0831 31.1686 49.4202 31.15C49.0542 31.1397 48.6873 31.148 48.3831 31.148C48.3831 32.5725 48.3831 33.9363 48.3831 35.3309C48.7233 35.3309 49.0945 35.335 49.4656 35.3299C50.0821 35.3216 50.5831 35.5462 50.9893 36.0169C51.9583 37.1407 52.6841 38.4076 53.1336 39.8126C53.4119 40.684 53.5583 41.5976 53.7645 42.4927C53.7645 42.7502 53.7645 43.0067 53.7645 43.2642C53.5913 44.287 53.3563 45.2913 52.8862 46.2265C52.8635 46.2719 52.8686 46.3604 52.8985 46.3996C53.4171 47.067 53.6357 47.8468 53.7645 48.6615C53.7656 48.8129 53.7656 48.9664 53.7656 49.1209ZM40.5193 20.3203C40.7884 20.4738 41.0265 20.5943 41.2481 20.7406C41.4223 20.856 41.5347 20.824 41.6749 20.6788C42.1296 20.207 42.6079 19.7569 43.0615 19.2841C43.7636 18.5518 44.611 18.1923 45.6234 18.283C46.4801 18.3602 47.3336 18.4684 48.1872 18.5775C48.5182 18.6198 48.6491 18.8484 48.68 19.1698C48.7316 19.7054 48.7759 20.2452 48.8759 20.7736C49.146 22.194 48.8677 23.4217 47.7306 24.3962C47.4192 24.6629 47.146 24.974 46.8543 25.2645C46.3749 25.7434 46.3759 25.7434 46.7089 26.3542C46.7831 26.4892 46.8295 26.6447 46.9233 26.7621C47.0213 26.8826 47.1584 27.0474 47.2842 27.0526C47.5264 27.0619 47.7955 27.032 47.8543 26.6797C47.8965 26.4294 48.0254 26.1956 48.0862 25.9474C48.212 25.4313 48.5079 25.041 48.8646 24.6526C49.6027 23.8502 50.3233 23.0252 50.9759 22.1538C51.9408 20.8642 52.5264 19.415 52.5821 17.7772C52.6408 16.0293 51.3274 14.6531 49.5831 14.6593C48.4429 14.6634 47.3739 14.9508 46.3636 15.47C44.0677 16.6493 42.4079 18.5909 40.5193 20.3203ZM45.8945 45.2511C46.1749 45.798 46.0007 46.277 45.7409 46.8023C45.2656 47.7633 45.3852 48.7058 46.1306 49.5103C46.6192 50.0376 47.1275 50.5485 47.6574 51.0337C48.844 52.1183 50.6161 52.073 51.7305 50.9513C52.8501 49.8244 52.8676 48.026 51.7563 46.8507C51.2893 46.3563 50.8058 45.8763 50.312 45.4066C49.5831 44.7124 48.7151 44.5084 47.7883 44.8896C47.1924 45.1347 46.6429 45.4489 45.978 45.1872C45.9718 45.1852 45.9594 45.2016 45.8945 45.2511ZM42.7316 44.8422C41.9224 45.3108 41.1553 45.7496 40.3966 46.2008C40.2956 46.2605 40.1553 46.3975 40.1667 46.4789C40.1997 46.6952 40.1306 46.9764 40.4708 47.0681C40.9162 47.1886 41.3502 47.3482 41.7853 47.5017C42.1863 47.6428 42.3564 47.9292 42.2522 48.2598C42.1502 48.5832 41.8265 48.7213 41.4327 48.5966C40.9069 48.4308 40.3904 48.231 39.8574 48.0919C39.3945 47.9714 39.1863 47.6995 39.1069 47.2401C38.945 46.2924 38.7482 45.351 38.5523 44.4096C38.5306 44.3055 38.4347 44.1418 38.3636 44.1366C37.9987 44.1088 37.6296 44.1232 37.244 44.1232C37.244 45.6559 37.2544 47.1319 37.2368 48.6069C37.2327 48.9798 37.3605 49.2352 37.642 49.4629C38.9935 50.5588 40.5275 51.2664 42.2162 51.6599C43.4729 51.9524 44.6904 51.8227 45.8759 51.3365C45.9636 51.3004 46.0429 51.2469 46.2079 51.1573C45.7718 50.7473 45.3553 50.4012 44.9935 50.0036C44.5192 49.4824 44.0553 48.9458 43.6471 48.3731C42.9027 47.3235 42.5925 46.139 42.7316 44.8422ZM45.5945 41.9138C45.9955 41.9138 46.3697 41.886 46.7378 41.919C47.9996 42.0312 49.0171 42.6709 49.9357 43.4815C50.6274 44.0923 51.2841 44.7433 51.9748 45.3943C52.3759 44.5218 52.6398 43.6206 52.5717 42.6709C52.414 40.4625 51.5511 38.5322 50.1594 36.8244C49.9532 36.5721 49.7079 36.4815 49.3872 36.4835C48.012 36.4938 46.6357 36.4876 45.2605 36.4887C45.1481 36.4887 45.0357 36.501 44.9089 36.5082C44.9089 36.9347 44.9089 37.3384 44.9089 37.7556C45.9976 37.9729 47.0635 38.1975 48.1347 38.3942C48.4975 38.4612 48.7027 38.6445 48.8089 38.9865C48.98 39.5375 49.1718 40.0824 49.3481 40.6314C49.4872 41.064 49.3666 41.3803 49.0295 41.4925C48.6831 41.6089 48.4017 41.4379 48.2543 41.0084C48.1048 40.5717 47.9965 40.1174 47.8027 39.7013C47.7347 39.5561 47.4769 39.4644 47.2893 39.4242C47.1996 39.4047 47.0336 39.5375 46.9687 39.6426C46.7718 39.9578 46.6202 40.2998 46.4275 40.618C46.1615 41.0527 45.877 41.475 45.5945 41.9138ZM35.1049 37.1757C35.7709 37.8576 36.4286 38.5415 37.1028 39.21C37.1832 39.2903 37.3544 39.3367 37.4688 39.3161C38.1368 39.1956 38.677 39.4129 39.142 39.8826C39.5811 40.3255 40.0275 40.7612 40.4162 41.1454C40.9203 40.6428 41.4151 40.1494 41.8924 39.6735C41.476 39.2471 41.0296 38.7877 40.5791 38.3303C40.2409 37.9873 39.9471 37.5609 40.0574 37.1015C40.2079 36.4701 39.8574 36.1663 39.4853 35.8171C39.1296 35.4834 38.7904 35.1331 38.443 34.7901C38.2739 34.6233 38.1038 34.4575 37.9595 34.3153C36.9801 35.2959 36.0399 36.2384 35.1049 37.1757ZM36.2368 22.0734C36.4028 22.1239 36.5224 22.1661 36.6461 22.196C37.0069 22.2856 37.4523 22.538 37.7059 22.4113C37.9812 22.2733 38.0729 21.7768 38.2554 21.4431C38.4739 21.0414 38.6317 20.5758 38.9409 20.2585C39.8976 19.2728 40.8863 18.3139 41.9131 17.4013C42.8523 16.568 43.8574 15.8088 44.8337 15.0157C44.879 14.9786 44.9213 14.9374 45.0048 14.8622C44.9141 14.8355 44.8708 14.821 44.8265 14.8097C43.5038 14.4667 42.2811 14.7108 41.143 15.4391C39.576 16.4413 38.3265 17.7854 37.1337 19.1883C37.0203 19.3212 36.9337 19.4943 36.8863 19.6622C36.6626 20.4491 36.4585 21.2422 36.2368 22.0734ZM39.8925 45.1625C42.577 43.7874 44.5656 41.8098 45.9182 39.1327C45.5264 39.0575 45.2007 38.9813 44.8708 38.9422C44.7759 38.9309 44.6264 38.9988 44.5749 39.0781C44.2966 39.4984 43.9533 39.8218 43.4584 39.9722C43.3543 40.0041 43.2574 40.0845 43.178 40.1638C42.4213 40.9137 41.6677 41.6666 40.9151 42.4206C40.8523 42.4834 40.7646 42.5493 40.7481 42.6266C40.611 43.2621 40.2224 43.6927 39.6533 43.978C39.7327 44.3663 39.8059 44.7289 39.8925 45.1625ZM47.647 22.8109C46.6976 22.3814 46.6976 22.3814 46.1038 22.4721C45.111 22.6245 44.5698 22.1517 44.7687 21.1753C44.8893 20.582 44.6677 20.1504 44.4203 19.5777C43.7935 20.2874 43.2058 20.9548 42.6749 21.5553C43.646 22.5267 44.711 23.5907 45.6759 24.5558C46.2759 24.0264 46.945 23.4331 47.647 22.8109ZM46.0203 28.507C45.5141 28.6028 45.0337 28.6739 44.5636 28.7892C44.1759 28.884 43.9326 28.7521 43.7234 28.4328C43.578 28.2114 43.3894 28.0115 43.1945 27.8303C42.9626 27.615 42.7265 27.617 42.4924 27.8673C42.1595 28.2227 41.8079 28.5616 41.4605 28.9025C41.2564 29.1034 41.1152 29.3176 41.2409 29.6174C41.3719 29.9274 41.6275 29.9933 41.9316 29.9923C43.176 29.9882 44.4203 29.9913 45.6656 29.9902C45.778 29.9902 45.8893 29.9779 46.0213 29.9707C46.0203 29.4896 46.0203 29.0333 46.0203 28.507ZM35.9399 23.2034C35.6069 24.4569 35.2719 25.6662 34.9719 26.8837C34.876 27.2699 35.175 27.4914 35.4678 27.6716C35.7368 27.8375 35.9472 27.7396 36.1399 27.5171C36.2987 27.3328 36.4863 27.1741 36.6544 26.997C37.343 26.2708 37.5317 26.4768 36.8781 25.3685C36.7038 25.0739 36.675 24.8082 36.8378 24.5012C36.9956 24.2035 37.1183 23.8873 37.2657 23.5608C36.8038 23.4362 36.3966 23.326 35.9399 23.2034ZM43.7265 36.4918C43.0306 36.4918 42.3791 36.466 41.7316 36.5093C41.5605 36.5206 41.3234 36.7122 41.2605 36.876C41.1986 37.0377 41.2574 37.3209 41.3719 37.4589C41.6904 37.8421 42.0677 38.1748 42.4172 38.5312C42.6296 38.7475 42.8553 38.969 43.1832 38.8351C43.5357 38.6909 43.7017 38.3746 43.7192 38.011C43.744 37.5269 43.7265 37.0397 43.7265 36.4918ZM37.2492 42.9593C37.8389 42.9593 38.3811 42.9953 38.9131 42.9418C39.1337 42.9191 39.4275 42.7522 39.5203 42.5668C39.6121 42.3835 39.578 42.024 39.4471 41.8654C39.0657 41.4019 38.6275 40.9785 38.1708 40.5871C38.0409 40.4759 37.742 40.4553 37.576 40.5243C37.4275 40.5861 37.2729 40.8251 37.2636 40.994C37.2275 41.6305 37.2492 42.2712 37.2492 42.9593ZM45.9295 21.3957C46.6295 20.9456 47.1934 21.2783 47.812 21.6439C47.7244 20.9888 47.6512 20.4203 47.5666 19.8537C47.5574 19.7909 47.4955 19.692 47.4471 19.6838C46.8594 19.5921 46.2708 19.5149 45.6007 19.4222C45.7769 19.7724 45.9831 20.0309 46.0316 20.3173C46.0821 20.617 45.9801 20.9415 45.9295 21.3957ZM48.0573 43.5505C47.0306 42.948 45.9976 42.9304 44.9028 43.2879C45.2285 43.7081 45.5481 44.0542 46.112 44.0089C46.3574 43.9893 46.6213 44.0727 46.8501 44.0109C47.2419 43.9069 47.613 43.7256 48.0573 43.5505ZM44.3388 47.1968C44.7965 46.1503 44.7625 46.0679 44.7605 45.2511C44.7594 44.6897 44.3893 44.4765 44.0708 44.15C43.6924 45.1337 43.8203 46.4923 44.3388 47.1968Z" fill="#1243C1"/>
<path d="M25.0605 13.501C25.7347 13.6555 26.4213 13.7688 27.0801 13.9717C28.6048 14.4404 29.9935 15.1737 31.2162 16.212C31.711 16.6323 31.9636 17.1421 31.9368 17.7941C31.9223 18.1505 31.9337 18.509 31.9337 18.8952C32.5522 18.8592 33.1367 18.818 33.7213 18.7943C34.3099 18.7696 34.5996 18.9539 34.6151 19.3402C34.6306 19.7244 34.344 19.9201 33.7625 19.95C33.1636 19.9819 32.5646 20.0313 31.9357 20.0756C31.9357 20.878 31.9275 21.6207 31.944 22.3623C31.946 22.4694 32.0697 22.5724 32.1295 22.6816C32.4223 23.2162 32.8306 23.7219 32.9821 24.2936C33.3666 25.7531 32.5048 27.0489 31.011 27.3785C30.6667 27.4547 30.4079 27.5989 30.1687 27.8503C29.61 28.4364 29.0234 28.9946 28.4605 29.5756C28.3533 29.6868 28.2595 29.8454 28.2327 29.9958C27.8894 31.923 26.1049 32.8222 24.3544 31.9384C24.1719 31.8457 23.9667 31.7592 23.8358 31.613C23.4317 31.1628 22.9296 31.1041 22.3709 31.1412C21.8987 31.1721 21.4224 31.1474 20.8781 31.1474C20.8307 31.6758 20.7688 32.1918 20.743 32.7099C20.7214 33.1456 20.7441 33.5834 20.7441 34.0201C20.7441 34.4146 20.54 34.6732 20.2121 34.6968C19.873 34.7216 19.5987 34.4641 19.5925 34.0603C19.5791 33.1127 19.5884 32.164 19.5884 31.1484C19.3482 31.1484 18.9967 31.1381 18.6461 31.1505C17.9544 31.1752 17.4039 30.9249 16.9647 30.3841C15.4348 28.5002 14.4905 26.3722 14.2977 23.9434C14.1998 22.7104 14.5493 21.5537 15.0544 20.4434C15.141 20.2528 15.1617 20.121 15.0297 19.9283C13.3132 17.4223 14.708 14.119 17.706 13.5659C17.7678 13.5545 17.8255 13.5236 17.8853 13.502C18.2194 13.502 18.5544 13.502 18.8884 13.502C19.6987 13.6823 20.4729 13.948 21.0863 14.5351C21.6802 15.1037 22.2812 15.6692 22.8307 16.28C23.8203 17.3801 24.075 18.6315 23.5038 20.0303C23.4152 20.2487 23.3853 20.5237 23.4245 20.7554C23.6358 21.9791 22.7966 22.8402 21.576 22.6239C21.4874 22.6085 21.3997 22.5786 21.3111 22.5765C21.2142 22.5734 21.1028 22.5683 21.0224 22.6095C19.4771 23.4036 17.9018 22.9618 16.7792 21.7772C16.5534 21.5393 16.339 21.29 16.0905 21.014C16.0142 21.1664 15.9833 21.221 15.9575 21.2797C15.2318 22.9144 15.3493 24.5511 15.9348 26.194C16.3091 27.2456 17.0926 27.567 18.0884 27.0427C18.7101 26.7152 18.8925 26.3104 18.6647 25.7645C18.5121 25.4009 18.6812 25.0898 19.0018 24.9858C19.3286 24.8797 19.6132 25.0321 19.7462 25.405C19.9018 25.8397 20.0699 26.2733 20.1791 26.7193C20.2699 27.0891 20.5688 27.0026 20.7925 27.0427C20.875 27.0571 21.0317 26.8954 21.0894 26.7821C22.5461 23.9156 24.709 21.7608 27.5729 20.2981C27.6894 20.2384 27.8224 20.0736 27.8244 19.9551C27.8285 19.7295 27.8327 19.4741 27.5018 19.3876C27.043 19.2681 26.5914 19.1146 26.1481 18.9457C25.7007 18.7757 25.5863 18.2133 25.9626 17.9692C26.1265 17.8631 26.3884 17.8961 26.6059 17.8889C26.8286 17.8817 27.0966 17.9847 27.2667 17.894C27.8739 17.5675 28.0626 16.9773 28.0574 16.3315C28.0523 15.765 27.7255 15.4065 27.1987 15.2252C26.0358 14.8246 24.8616 14.5269 23.6121 14.7267C23.1719 14.7968 22.8822 14.5846 22.841 14.2282C22.8039 13.8996 23.0441 13.6493 23.4585 13.5793C23.5575 13.5628 23.6533 13.5288 23.7502 13.503C24.1853 13.501 24.6224 13.501 25.0605 13.501ZM18.5029 14.6577C16.5977 14.6659 15.2534 16.2161 15.4678 17.963C15.6111 19.129 16.3936 19.8531 17.2245 20.5247C17.6276 20.8502 18.2039 20.5103 18.2688 19.9767C18.3492 19.3144 18.6152 19.1404 19.2183 19.3721C19.5132 19.4854 19.776 19.4545 20.0028 19.2393C20.2451 19.0096 20.2668 18.7284 20.1544 18.4245C19.9338 17.8261 20.0884 17.5789 20.7317 17.4934C21.0348 17.4532 21.2626 17.3182 21.376 17.0195C21.4915 16.7147 21.3925 16.4633 21.1812 16.2481C20.8936 15.9545 20.607 15.6589 20.3008 15.3849C19.7513 14.8936 19.0946 14.669 18.5029 14.6577ZM22.1358 27.2776C23.1575 27.4475 24.1265 27.6175 25.0997 27.7586C25.2306 27.7771 25.4183 27.6834 25.5214 27.5825C26.3389 26.7852 27.1141 25.9406 27.9626 25.1773C28.4523 24.7375 28.6945 24.306 28.4636 23.6612C28.3997 23.483 28.4007 23.2831 28.3687 23.0936C28.2698 22.523 28.1698 21.9534 28.0626 21.3467C25.4317 22.7146 23.4791 24.6551 22.1358 27.2776ZM16.9503 28.4425C17.2802 28.8803 17.5596 29.2429 17.8297 29.6126C18.0379 29.898 18.306 29.9989 18.6585 29.9958C20.1997 29.9835 21.741 29.9958 23.2812 29.9855C23.5853 29.9834 23.8069 30.0885 24.042 30.2749C24.3987 30.5582 24.775 30.8476 25.1904 31.0207C25.8234 31.2844 26.4451 31.0629 26.7461 30.5397C26.6409 30.5397 26.5564 30.5417 26.4719 30.5397C25.7069 30.5149 24.7368 29.9124 24.6925 29.0698C24.6884 28.9874 24.5275 28.8638 24.4234 28.8453C22.9461 28.5836 21.4636 28.3478 19.9874 28.0789C19.7101 28.0285 19.4544 27.8616 19.1338 27.7256C18.6132 28.218 17.8544 28.4085 16.9503 28.4425ZM31.3553 25.9591C31.812 25.6584 31.9935 25.1866 31.8924 24.6376C31.7904 24.0824 31.4399 23.6776 31.1027 23.2512C30.9347 23.038 30.7945 22.7372 30.7904 22.4735C30.7615 20.9203 30.779 19.3649 30.7718 17.8116C30.7708 17.6499 30.7729 17.4274 30.677 17.3389C30.244 16.9382 29.7749 16.5756 29.244 16.1358C29.2347 17.0958 28.977 17.8178 28.5213 18.3472C28.6636 18.6789 28.8285 18.9333 28.8832 19.2104C29.0471 20.0406 29.1677 20.8801 29.3079 21.7144C29.4296 22.4437 29.5543 23.1719 29.6759 23.8847C30.7667 24.0371 31.2409 24.6283 31.3553 25.9591ZM22.4214 17.7158C22.142 17.9589 21.9008 18.2051 21.6214 18.3987C21.4585 18.511 21.3771 18.5986 21.3678 18.8097C21.3245 19.8202 20.5853 20.5371 19.5616 20.5958C19.475 20.6009 19.3492 20.5886 19.308 20.6391C19.04 20.9635 18.7915 21.3024 18.5297 21.6454C19.2431 21.9709 19.9441 21.8988 20.6131 21.5012C20.9111 21.324 21.1781 21.2746 21.5183 21.4054C21.7183 21.4826 22.0358 21.4909 22.1874 21.3786C22.2935 21.3003 22.2668 20.945 22.1977 20.7482C22.076 20.4001 22.1131 20.1148 22.2997 19.8027C22.6977 19.1332 22.7606 18.4317 22.4214 17.7158ZM26.6646 29.4159C26.8151 29.3469 27.0523 29.3026 27.1956 29.1636C28.1337 28.252 29.0605 27.328 29.9729 26.3907C30.2254 26.1322 30.2337 25.783 30.109 25.4503C29.9512 25.027 29.7698 24.9878 29.4553 25.301C28.3378 26.4154 27.2213 27.531 26.1059 28.6465C25.7729 28.9792 25.8131 29.1522 26.2616 29.3191C26.3688 29.3593 26.4842 29.3737 26.6646 29.4159Z" fill="#1243C1"/>
<path d="M33.561 47.7216C32.8487 47.6299 32.1353 47.5465 31.4239 47.4435C31.2147 47.4136 31.0868 47.4394 30.9383 47.6248C29.7126 49.1492 28.3899 50.5748 26.8796 51.8345C25.4745 53.0056 23.9632 53.2446 22.2786 52.6111C21.9188 52.4762 21.5663 52.3165 21.1993 52.2053C21.056 52.162 20.8446 52.1641 20.7271 52.2414C17.9962 54.0439 14.4921 52.3248 14.2911 49.0627C14.2344 48.1521 14.4849 47.3055 15.0189 46.5587C15.1488 46.3764 15.1529 46.2425 15.0601 46.0437C14.6725 45.2135 14.421 44.3452 14.3096 43.4295C14.2251 42.7342 14.3643 42.1059 14.6983 41.5044C15.4065 40.2282 16.4106 39.1971 17.4611 38.2114C18.0983 37.614 18.7725 37.0567 19.4312 36.483C20.0745 35.9216 20.7766 35.8495 21.5395 36.2224C22.623 36.7518 23.7137 37.2689 24.7941 37.8055C24.9992 37.9075 25.1498 37.8931 25.3601 37.8035C26.0662 37.5048 26.7693 37.1587 27.5105 36.9887C29.226 36.5963 30.7281 38.1197 30.3064 39.8234C30.127 40.5475 29.7703 41.2314 29.4683 41.9215C29.3775 42.1296 29.3642 42.2872 29.4652 42.4922C30.0528 43.6891 30.6239 44.8952 31.2126 46.0921C31.2569 46.1817 31.3951 46.2672 31.4982 46.2785C32.3775 46.3723 33.26 46.4495 34.1404 46.5299C34.2682 46.5412 34.4002 46.5268 34.5239 46.5515C34.8301 46.6133 35.0002 46.8214 34.9899 47.1242C34.9796 47.4229 34.8074 47.6413 34.4919 47.665C34.1858 47.6886 33.8754 47.6701 33.5672 47.6701C33.5651 47.6886 33.5631 47.7051 33.561 47.7216ZM27.0982 43.0092C27.3858 43.9352 27.6621 44.7891 27.9106 45.6512C27.9631 45.8325 27.9879 46.1045 27.891 46.2311C27.3611 46.9244 26.8013 47.5959 26.224 48.2521C26.0229 48.4807 25.7312 48.4725 25.491 48.2727C25.2384 48.0625 25.2085 47.7927 25.3755 47.5125C25.4477 47.392 25.5487 47.29 25.6384 47.1808C26.0188 46.7194 26.3992 46.26 26.7291 45.8614C25.726 45.0353 24.7013 44.3122 23.8281 43.4388C22.9477 42.5581 22.2178 41.526 21.4003 40.5341C20.9292 40.9245 20.4178 41.3529 19.9013 41.7742C19.557 42.0554 19.2055 42.0503 18.9828 41.7763C18.7632 41.5044 18.8343 41.1603 19.1756 40.876C19.6993 40.4393 20.2364 40.0201 20.7446 39.5669C21.0508 39.2929 21.3477 39.2517 21.7323 39.3805C22.558 39.6575 23.3962 39.8965 24.2559 40.1592C24.3178 39.7997 24.3972 39.4752 24.4188 39.1456C24.426 39.0374 24.3147 38.8644 24.2116 38.8129C23.1436 38.2794 22.0652 37.7654 20.992 37.2431C20.7065 37.1041 20.4519 37.1257 20.2086 37.3379C19.7343 37.752 19.2209 38.1279 18.7838 38.5781C17.8447 39.5432 16.9148 40.5207 16.0447 41.5476C15.7447 41.9009 15.5055 42.4036 15.4663 42.8578C15.3921 43.7344 15.6653 44.579 16.0673 45.4339C16.5065 44.9869 16.9199 44.5687 17.3302 44.1464C17.6694 43.7972 17.9797 43.3862 18.5684 43.6427C18.6075 43.6602 18.6684 43.6314 18.7189 43.6211C19.4756 43.4769 20.2106 43.5696 20.8982 43.9002C21.2168 44.0537 21.5024 44.0866 21.8477 44.0248C22.957 43.824 23.458 44.3544 23.2446 45.4658C23.2322 45.5287 23.2054 45.5936 23.2116 45.6543C23.2271 45.8243 23.2157 46.0118 23.2848 46.1591C24.0394 47.7412 23.79 49.2522 22.5467 50.5037C22.325 50.7272 22.091 50.9394 21.7962 51.2185C22.2611 51.3741 22.624 51.4915 22.9838 51.6151C24.0992 51.9972 25.0807 51.7943 26.0054 51.0486C27.4858 49.8538 28.7559 48.4622 29.9672 47.0088C30.1507 46.7894 30.161 46.5484 30.0342 46.2909C29.5033 45.2083 28.9796 44.1206 28.4435 43.0401C28.4023 42.9567 28.2817 42.8506 28.2054 42.8568C27.8528 42.8846 27.5013 42.9495 27.0982 43.0092ZM18.1756 44.9756C17.4952 45.644 16.822 46.262 16.2003 46.9264C15.3158 47.872 15.1962 49.2841 15.8591 50.3883C16.5313 51.508 17.8477 52.0477 19.1158 51.7222C20.4405 51.3823 21.1199 50.4285 20.8725 49.2151C20.8044 48.8794 20.6848 48.5467 20.5405 48.2346C19.9704 46.9965 19.1127 45.9613 18.1756 44.9756ZM19.6343 44.6851C19.6158 44.7139 19.5982 44.7428 19.5797 44.7716C20.6921 46.0973 21.724 47.4692 22.089 49.2883C22.6457 48.4354 22.7065 47.6011 22.2766 46.7915C22.0044 46.2796 21.889 45.8088 22.0921 45.2681C22.0982 45.2516 22.0766 45.2248 22.0601 45.1816C21.9683 45.1888 21.858 45.1733 21.7725 45.2104C21.3663 45.3834 21.023 45.2897 20.6529 45.0683C20.3446 44.8859 19.9756 44.8087 19.6343 44.6851ZM29.2559 39.0055C29.2188 38.9932 29.1817 38.9798 29.1435 38.9674C29.0693 39.0333 28.9899 39.0951 28.9198 39.1662C28.2765 39.81 27.6178 40.4383 27.0054 41.1099C26.8518 41.2788 26.8466 41.5826 26.7631 41.8597C28.3507 41.7372 28.3837 41.7145 28.9425 40.3621C29.0105 40.1973 29.091 40.0325 29.127 39.8594C29.1868 39.5772 29.2147 39.2898 29.2559 39.0055ZM28.3126 38.1321C28.2116 38.1063 28.1765 38.0898 28.1415 38.0898C27.2312 38.0857 26.4755 38.5338 25.7044 38.9314C25.6652 38.952 25.6229 39.0035 25.6168 39.0467C25.5415 39.5061 25.4735 39.9665 25.3827 40.5578C25.7332 40.4208 26.0281 40.3858 26.2033 40.223C26.9126 39.5607 27.5858 38.8593 28.3126 38.1321ZM23.3322 41.1305C24.1312 42.212 25.0312 43.1236 26.1703 43.9476C26.0322 43.4882 25.9116 43.139 25.824 42.7816C25.7333 42.4118 25.6755 42.0348 25.6106 41.7021C24.8621 41.5147 24.123 41.3293 23.3322 41.1305Z" fill="#1243C1"/>
</svg>
