<svg width="25" height="34" viewBox="0 0 25 34" fill="none" xmlns="http://www.w3.org/2000/svg">
<g clip-path="url(#clip0_240_3112)">
<path d="M13.4272 0.837402C13.8598 0.917663 14.2965 0.979338 14.724 1.08072C18.776 2.03625 21.6316 5.56097 21.7203 9.72863C21.7465 10.9638 21.7279 12.199 21.7296 13.435C21.7296 13.5491 21.7296 13.6631 21.7296 13.8236C21.9839 13.8236 22.212 13.8203 22.4392 13.8245C23.7665 13.8473 24.7702 14.8417 24.8014 16.1732C24.8133 16.6801 24.804 17.187 24.804 17.6939C24.804 21.9384 24.804 26.183 24.804 30.4284C24.804 32.1062 24.3511 32.7466 22.7873 33.2814C16.042 33.2814 9.29586 33.2814 2.55055 33.2814C2.38074 33.2274 2.20754 33.1826 2.04195 33.1175C1.08896 32.7466 0.534733 31.8874 0.534733 30.7764C0.532199 25.9599 0.533044 21.1451 0.535578 16.3303C0.535578 16.1411 0.551631 15.9501 0.58289 15.7643C0.764533 14.6761 1.70316 13.86 2.80401 13.827C3.05577 13.8194 3.30754 13.8262 3.60831 13.8262C3.60831 13.6792 3.60831 13.5567 3.60831 13.4342C3.61084 12.1458 3.59226 10.8574 3.62098 9.5698C3.71476 5.33624 7.0156 1.59693 11.2002 0.959061C11.4376 0.922732 11.6733 0.877955 11.9098 0.837402C12.4151 0.837402 12.9211 0.837402 13.4272 0.837402ZM12.6575 14.9118C9.45384 14.9118 6.25101 14.911 3.04733 14.9127C2.14164 14.9127 1.63473 15.4145 1.63389 16.3219C1.63135 21.1367 1.63135 25.9515 1.63389 30.7663C1.63389 31.6914 2.13742 32.1865 3.0676 32.1865C9.46398 32.1874 15.8604 32.1874 22.2576 32.1865C23.2055 32.1865 23.7023 31.6931 23.7031 30.7452C23.7048 25.9515 23.7048 21.1578 23.7031 16.3641C23.7031 15.3976 23.2097 14.9127 22.2365 14.9127C19.0429 14.9118 15.8502 14.9118 12.6575 14.9118ZM17.5703 13.8143C17.5839 13.756 17.5974 13.7265 17.5974 13.6969C17.5974 12.346 17.5991 10.9942 17.5906 9.6433C17.5889 9.42364 17.5518 9.20144 17.5078 8.98516C16.9823 6.40245 14.7223 4.7609 12.0526 5.01942C9.64901 5.25176 7.74724 7.42725 7.7371 9.96097C7.73203 11.1429 7.73626 12.3257 7.73626 13.5077C7.73626 13.6074 7.73626 13.7079 7.73626 13.8143C11.0413 13.8143 14.2957 13.8143 17.5703 13.8143ZM6.64724 13.7991C6.64724 12.9577 6.63795 12.1559 6.64978 11.355C6.66245 10.5541 6.62866 9.74469 6.73342 8.9539C7.16429 5.70122 10.4871 3.34662 13.7051 3.9735C16.6799 4.55306 18.6703 6.95498 18.6881 9.99392C18.6948 11.1446 18.6889 12.2953 18.6889 13.446C18.6889 13.5584 18.6889 13.6707 18.6889 13.7974C19.3564 13.7974 19.9816 13.7974 20.622 13.7974C20.6279 13.6978 20.6372 13.615 20.6372 13.533C20.638 12.3088 20.6456 11.0838 20.6355 9.85958C20.5966 5.22557 16.6638 1.61129 12.0526 1.96528C7.94156 2.28041 4.73703 5.70544 4.70155 9.83002C4.69141 11.0652 4.69901 12.3004 4.69986 13.5355C4.69986 13.6251 4.71422 13.7146 4.72098 13.8C5.37152 13.7991 5.98995 13.7991 6.64724 13.7991Z" fill="#FF7F2D"/>
<path d="M12.669 27.8727C12.0793 27.8727 11.4896 27.8769 10.8991 27.871C10.3448 27.8659 10.1319 27.5981 10.2435 27.0642C10.4217 26.2075 10.6059 25.3525 10.7681 24.4933C10.7901 24.3776 10.7385 24.2044 10.6574 24.119C9.71796 23.1407 9.54393 21.7272 10.2401 20.5951C10.9278 19.4757 12.2948 18.9671 13.5359 19.3693C14.7964 19.7773 15.6024 20.9694 15.5069 22.3161C15.4579 23.0156 15.163 23.6087 14.6798 24.1182C14.5987 24.2044 14.5446 24.3759 14.5666 24.4916C14.7288 25.3508 14.913 26.2058 15.0912 27.0625C15.2027 27.5981 14.9907 27.8659 14.4382 27.8719C13.8484 27.8769 13.2587 27.8727 12.669 27.8727ZM13.8797 26.7491C13.8797 26.6967 13.8848 26.6637 13.8789 26.6342C13.7268 25.8907 13.5916 25.1438 13.4142 24.4071C13.3153 23.9957 13.3965 23.7203 13.7496 23.4575C14.5125 22.8889 14.6426 21.8202 14.0875 21.0573C13.5409 20.307 12.5051 20.111 11.722 20.6104C10.6887 21.2693 10.627 22.7368 11.6172 23.4829C11.9315 23.7194 12.0506 23.9796 11.9264 24.353C11.8968 24.4426 11.8867 24.5381 11.8673 24.631C11.7228 25.3297 11.5792 26.0292 11.4305 26.7499C12.2601 26.7491 13.0568 26.7491 13.8797 26.7491Z" fill="#FF7F2D"/>
</g>
<defs>
<clipPath id="clip0_240_3112">
<rect width="24.2735" height="32.4423" fill="white" transform="translate(0.533203 0.837402)"/>
</clipPath>
</defs>
</svg>
